<svg xmlns="http://www.w3.org/2000/svg" width="96" height="96" viewBox="0 0 96 96">
  <title>bomSync</title>
  <g>
    <path d="M86.61,18l-6.56,6.55A40.36,40.36,0,0,0,47.6,8.06,39.48,39.48,0,0,0,7.73,48h12A27.61,27.61,0,0,1,47.6,20.06,28.34,28.34,0,0,1,71.43,33.18l-7.2,7.2a1,1,0,0,0,.71,1.71H87.31a1,1,0,0,0,1-1V18.71A1,1,0,0,0,86.61,18Z" fill="#0078d3"/>
    <path d="M48.4,75.94A28.34,28.34,0,0,1,24.57,62.82l7.2-7.2a1,1,0,0,0-.71-1.71H8.69a1,1,0,0,0-1,1V77.29a1,1,0,0,0,1.7.7L16,71.44A40.36,40.36,0,0,0,48.4,87.94,39.48,39.48,0,0,0,88.27,48h-12A27.61,27.61,0,0,1,48.4,75.94Z" fill="#0078d3"/>
  </g>
</svg>
