<svg xmlns="http://www.w3.org/2000/svg" width="96" height="96" viewBox="0 0 96 96">
  <title>bomSmile</title>
  <g>
    <path d="M79.24,53.45a5,5,0,0,0-.83.95C70.77,64.55,61,71.25,48.06,71.38c-13-.13-22.71-6.83-30.35-17a5.19,5.19,0,0,0-7.21-1.35,5.27,5.27,0,0,0-.91.79c-1.86,1.9-1.94,4.28-.28,6.83h0A45.12,45.12,0,0,0,19.65,71.94c8.61,6.63,18.06,10,28.29,10h.16c10.22,0,19.68-3.35,28.28-10A45.7,45.7,0,0,0,86.73,60.67c1.66-2.55,1.54-4.93-.2-6.83A5.16,5.16,0,0,0,79.24,53.45Z" fill="#0078d4"/>
    <path d="M16.5,24h0A9.94,9.94,0,1,0,26.44,14,9.94,9.94,0,0,0,16.5,24Z" fill="#0078d4"/>
    <path d="M59.66,24h0A9.94,9.94,0,1,0,69.6,14,9.93,9.93,0,0,0,59.66,24Z" fill="#0078d4"/>
  </g>
</svg>
