<svg xmlns="http://www.w3.org/2000/svg" width="96" height="96" viewBox="0 0 96 96">
  <title>inkingDraw</title>
  <g>
    <path d="M53.68,62.25,54,65.42a5,5,0,0,0,2.87-.6.84.84,0,0,0,.26-.7,2.06,2.06,0,0,1,0-.35C56,63.3,54.86,62.79,53.68,62.25Z" fill="none"/>
    <path d="M36.33,60c-.49.9-1.11,2.1-1.71,3.41-1.82,3.92-1.91,5.36-1.87,5.74l1.31.84c1.16-.56,4-3.65,6.64-7.18Z" fill="none"/>
    <path d="M50.09,61.52v-.19h0a2.62,2.62,0,0,1,.12-.68L47,59.12l-.77,1.2L46.77,66a5.12,5.12,0,0,0,3.17-.62.7.7,0,0,0,.23-.64l-.11-3.17Z" fill="none"/>
    <path d="M31,71.79a8.8,8.8,0,0,0-.9,2.78,9.1,9.1,0,0,0,2.22-1.93Z" fill="none"/>
    <path d="M39.59,54.75,38,57.24l4.54,2.93,1.59-2.46L42.59,57A8,8,0,0,1,39.59,54.75Z" fill="none"/>
    <path d="M68.83,19.34l-4.54-2.91L46.06,44.71l5.07,2.12Z" fill="none"/>
    <path d="M55.83,49a18.58,18.58,0,0,1,3.57-.23,19,19,0,0,0-2.59-4.82L54.18,48A13.62,13.62,0,0,1,55.83,49Z" fill="none"/>
    <path d="M50.23,32.32,48.14,32c-3.93-.58-5,.06-5.49,1.41l-.06.13L32.18,51.05a7.26,7.26,0,0,0,2.78.34h.34c1.38,0,2.19-.06,2.4-.09a7,7,0,0,1-.19-1.3,10.13,10.13,0,0,1,1-5.19A4.93,4.93,0,0,1,40,43l.79-.52,2.21.92Z" fill="none"/>
    <path d="M85.26,48.22l-11.44-11L67.45,32l-.15-.1A7.26,7.26,0,0,0,65.14,31l8.1-12.58-1.35-.86,1.42-2.18a.91.91,0,0,0-.22-1.27l-5.67-3.68a.9.9,0,0,0-1.24.34h0l-1.41,2.19L63.32,12l-3.89,6.06-2-1.29L55.8,19.28l2,1.28-1,1.55-2-1.29L54,22.07a1.43,1.43,0,0,0,.32,2l.88.55L52.35,29l-.1,0-3.62-.5c-2.4-.34-7.35-1.07-9.24,3.49L27.83,51.43l.45.88c.24.46,1.63,2.64,6.32,2.64h1L34.4,56.87l0,.07c-.06.1-1.67,2.89-3,5.89-1.18,2.63-2.18,5.42-1.69,7.3-1.09,2.06-2.29,5.1-.71,6.13a1.55,1.55,0,0,0,.84.24c1.41,0,3.17-1.74,4.39-3.22,1.5-.17,3.38-1.67,6-4.75,1.35-1.57,2.59-3.17,3.34-4.18L44,68.72l1.18.17a14.17,14.17,0,0,0,2.06.15h.38a7.82,7.82,0,0,0,3.62-.83l1.12.17a15.4,15.4,0,0,0,1.8.13,7.28,7.28,0,0,0,4.71-1.38,3.59,3.59,0,0,0,1.09-1.69C62,66.94,66,69.45,70.22,70c5.49.75,7.46,1,7.54,1L78,71a1.75,1.75,0,0,0,1.75-1.56,1.79,1.79,0,0,0-1.56-2s-2-.24-7.46-1c-4.92-.68-9.9-4.88-9.94-4.92l-.21-.2-.28-.1c-5.68-2.3-16-7.42-16.13-7.46l-.13,0A4.82,4.82,0,0,1,41.11,50a7.23,7.23,0,0,1,.51-3.22l8.31,3.46.17.06c.2.06.5.15.84.28l.23.08a11,11,0,0,1,3,1.61l.71.66.94-.23a15.84,15.84,0,0,1,5.23-.17,1.72,1.72,0,0,0,1.45-.47,1.76,1.76,0,0,0,.84-1.65c-.35-4.5-4.09-9.06-4.27-9.26a.92.92,0,0,0-.27-.25l4.3-6.69a6.87,6.87,0,0,1,2.16.67l6.13,5L82.81,50.77a1.8,1.8,0,0,0,1.22.49,1.77,1.77,0,0,0,1.26-3ZM30.05,74.57a9.49,9.49,0,0,1,.9-2.79l1.33.86A9,9,0,0,1,30.05,74.57Zm4-4.59-1.31-.83c0-.41,0-1.84,1.87-5.74.6-1.29,1.24-2.51,1.71-3.41l4.37,2.83c-2.63,3.54-5.48,6.6-6.64,7.16ZM50,65.35a5.33,5.33,0,0,1-3.17.62l-.53-5.63.77-1.2,3.21,1.52a1.84,1.84,0,0,0-.13.69h0v.21l.11,3.18a.71.71,0,0,1-.25.62Zm6.86-.55a4.87,4.87,0,0,1-2.87.6l-.28-3.18c1.18.54,2.33,1.05,3.43,1.53a1,1,0,0,0,0,.34.74.74,0,0,1-.25.71ZM42.61,57c.19.08.72.36,1.52.75l-1.59,2.46L38,57.26l1.61-2.49a8.2,8.2,0,0,0,3,2.21ZM40.85,42.57l-.79.51a4.79,4.79,0,0,0-1.5,1.78,10.07,10.07,0,0,0-1,5.18,8.27,8.27,0,0,0,.19,1.31c-.21,0-1,0-2.4.08H35a7.49,7.49,0,0,1-2.78-.34L42.61,33.61l.06-.13c.54-1.35,1.55-2,5.49-1.41l2.1.3L43.08,43.51Zm5.21,2.14,18.23-28.3,4.54,2.93L51.13,46.81Zm13.35,4a18.63,18.63,0,0,0-3.58.23,11.1,11.1,0,0,0-1.67-1l2.63-4.09a18.16,18.16,0,0,1,2.61,4.82Z" fill="#aaa"/>
    <path d="M29.91,80.61A5.19,5.19,0,0,1,26,82.28a5.43,5.43,0,0,1-3.64-1.67c-3.7-3.7-7.94-3.7-11.63,0A1.71,1.71,0,0,0,13.11,83h0c2.38-2.38,4.41-2.38,6.79,0a8.9,8.9,0,0,0,5.93,2.68h.35A8.61,8.61,0,0,0,32.33,83a1.71,1.71,0,1,0-2.43-2.42Z" fill="#aaa"/>
  </g>
</svg>
