<svg xmlns="http://www.w3.org/2000/svg" width="96" height="96" viewBox="0 0 96 96">
  <title>inkingPalm</title>
  <path d="M79.89,23.43,75.9,18a.92.92,0,0,0-1.28-.14h0l-2.1,1.5-1-1.37-5.82,4.24-1.4-1.93L61.87,22,63.26,24,61.79,25,60.4,23.11,59.19,24a1.45,1.45,0,0,0-.43,2l.6.83L55.1,29.88,55,29.81,51.82,28c-2.1-1.2-6.47-3.67-9.85-.09L24.15,41.87l.11,1c.06.51.6,3.21,5.37,4.9a1.82,1.82,0,0,0,.3.11l.26.08L28.35,49.3l-.07.05c-.1.08-2.61,2.08-5,4.39-2,2-4,4.27-4.22,6.19-1.73,1.59-4,4-2.84,5.49a1.79,1.79,0,0,0,1.54.66,10.68,10.68,0,0,0,4.41-1.54,3.23,3.23,0,0,0,.82.1c1.45,0,3.56-.77,6.51-2.35,1.84-1,3.58-2,4.63-2.68L33,63.83l1,.6a13.88,13.88,0,0,0,2.22,1,9.2,9.2,0,0,0,2.94.58,4.76,4.76,0,0,0,.75-.07l1,.56A11.52,11.52,0,0,0,45.78,68a4.85,4.85,0,0,0,1.65-.28,3.57,3.57,0,0,0,1.63-1.18,29.43,29.43,0,0,0,5.29,6.17H31.18a1.72,1.72,0,0,0,0,3.43H58.9a1.6,1.6,0,0,0,.68-.15c2.87,1.58,4,2.16,4.05,2.21a1.92,1.92,0,0,0,.82.21A1.74,1.74,0,0,0,66,77.43a1.77,1.77,0,0,0-.75-2.4h0s-1.8-.94-6.6-3.62c-4.35-2.42-7.45-8.14-7.49-8.19L51,63l-.22-.19C46.35,58.6,38.57,50.07,38.48,50l-.08-.09a4.87,4.87,0,0,1-1.35-4.58,6.93,6.93,0,0,1,1.63-2.81l6.49,6.21.13.13.66.56a1.54,1.54,0,0,0,.19.17,10.82,10.82,0,0,1,2.23,2.59l.43.88,1,.13a15.2,15.2,0,0,1,4.93,1.74,2.2,2.2,0,0,0,2.89-1.13c1.3-4.31-.54-9.92-.62-10.16a2.07,2.07,0,0,0-.15-.34l6.49-4.76A7.62,7.62,0,0,1,65.09,40L69,46.89l6.69,14.29a1.78,1.78,0,0,0,1.6,1A1.83,1.83,0,0,0,78,62a1.78,1.78,0,0,0,.85-2.35l-6.7-14.36-4-7.2L68.06,38a7.35,7.35,0,0,0-1.69-1.65l12.11-8.8-.94-1.29,2.1-1.52A1,1,0,0,0,79.89,23.43ZM19.71,62l.93,1.29a9.16,9.16,0,0,1-2.77,1A9.17,9.17,0,0,1,19.71,62Zm3.56-.54-.92-1.26c.11-.39.71-1.7,3.81-4.69,1-1,2.06-1.89,2.83-2.55l3.06,4.22C28.3,59.5,24.56,61.35,23.27,61.45Zm13.3.84,1.55-5.46L39.28,56l2.44,2.59a2.72,2.72,0,0,0-.37.58h0l-.06.19v0l-1,3c-.13.36-.3.47-.45.51a5.56,5.56,0,0,1-3.22-.59ZM47,64a.85.85,0,0,0-.15.3.78.78,0,0,1-.5.56,4.82,4.82,0,0,1-2.89-.48l.88-3c.92,1,1.82,1.84,2.65,2.66Zm-9.9-10.33-2.38,1.72L31.54,51l2.4-1.74a8.25,8.25,0,0,0,2,3.15c.13.15.54.6,1.14,1.24Zm1.52-15.12a4.85,4.85,0,0,0-2,1.11,10.19,10.19,0,0,0-2.83,4.48,7.11,7.11,0,0,0-.3,1.29c-.21-.07-1-.33-2.27-.8l-.32-.13a7.41,7.41,0,0,1-2.46-1.32l16-12.54.11-.1c1-1.07,2.16-1.29,5.61.66l1.84,1L41.24,40l-1.71-1.65Zm16,12.32a21.41,21.41,0,0,0-3.41-1.07,11,11,0,0,0-1.2-1.5l3.94-2.85A20.23,20.23,0,0,1,54.57,50.83Zm-7-4.8-4-3.82L70.83,22.42,74,26.79Z" fill="#aaa"/>
</svg>
