<svg xmlns="http://www.w3.org/2000/svg" width="96" height="96" viewBox="0 0 96 96">
  <title>inkingWrite</title>
  <g>
    <path d="M33.94,75a9.5,9.5,0,0,0-.51,2.89,9.75,9.75,0,0,0,2-2.2Z" fill="none"/>
    <path d="M37.67,62.57c-.36.94-.82,2.25-1.24,3.6-1.27,4.11-1.14,5.57-1,6l1.41.67c1.07-.71,3.45-4.16,5.61-8Z" fill="none"/>
    <path d="M50.52,47.49,64.28,17.86l-4.91-2.29L45.19,46.09Z" fill="none"/>
    <path d="M51.49,62.14h0a.59.59,0,0,1,0-.13h0a1.56,1.56,0,0,1,0-.68c-1.2-.37-2.36-.73-3.39-1.08l-.6,1.31,1.31,5.51a5.37,5.37,0,0,0,3.06-1,.68.68,0,0,0,.15-.67Z" fill="none"/>
    <path d="M55.45,49A20.08,20.08,0,0,1,59,48.28a18.41,18.41,0,0,0-3.23-4.41l-2.06,4.41A10.24,10.24,0,0,1,55.45,49Z" fill="none"/>
    <path d="M47.63,33.26H45.3c-3.79,0-4.69.75-5,2.15l0,.15L32.29,54.3a7.38,7.38,0,0,0,2.81,0,1.28,1.28,0,0,0,.34-.07c1.35-.21,2.17-.36,2.38-.4a6.33,6.33,0,0,1-.36-1.27,10.25,10.25,0,0,1,.3-5.27,5,5,0,0,1,1.24-2l.71-.6,2.31.6Z" fill="none"/>
    <path d="M58.75,63.45c-1.14-.3-2.36-.67-3.6-1l.71,3.1a4.62,4.62,0,0,0,2.74-1,.8.8,0,0,0,.15-.73A1,1,0,0,1,58.75,63.45Z" fill="none"/>
    <path d="M38.91,59.63l4.91,2.27,1.24-2.65-1.61-.54a8.35,8.35,0,0,1-3.3-1.78Z" fill="none"/>
    <path d="M84.52,44.19,71.69,34.91l-7-4.32-.15-.09a7.73,7.73,0,0,0-2.27-.62l6.3-13.56-1.45-.67,1.09-2.36a.91.91,0,0,0-.37-1.21h0L61.64,9.18a.92.92,0,0,0-1.18.5L59.37,12l-1.54-.7-3,6.53-2.17-1-1.26,2.7,2.16,1-.77,1.65-2.16-1L50,22.55a1.45,1.45,0,0,0,.57,1.93l1,.43-2.21,4.77H45.53c-2.42,0-7.43,0-8.65,4.72L28.07,55.22l.58.82c.26.36,1.55,1.88,4.86,1.88a13.79,13.79,0,0,0,2.23-.19l.32,0,.26,0-1,2.07,0,.06c0,.13-1.26,3.09-2.18,6.26-.79,2.76-1.44,5.68-.66,7.45-.8,2.19-1.57,5.36.12,6.15a1.44,1.44,0,0,0,.65.15c1.48,0,3.06-2.08,4.13-3.81,1.46-.37,3.11-2.12,5.34-5.55,1.11-1.74,2.12-3.49,2.72-4.58l1,4.26,1.18,0h.08a16.94,16.94,0,0,0,2.36-.19,7.88,7.88,0,0,0,3.47-1.33l1.12,0h.08c.73,0,4.46-.11,6.19-2.14a3.73,3.73,0,0,0,.86-1.84c2.27,1.2,6.58,3.12,10.82,3.12,5.52,0,7.52,0,7.6,0a1.78,1.78,0,1,0-.08-3.55s-2,0-7.52,0c-5,0-10.48-3.47-10.54-3.52l-.24-.15-.28-.06c-5.93-1.48-16.88-5.14-17-5.18l-.13-.05A4.84,4.84,0,0,1,41,51.9a7,7,0,0,1,.06-3.25l8.7,2.27L50,51a8.71,8.71,0,0,1,.86.17l.25.06a10.85,10.85,0,0,1,3.2,1.19l.79.55.9-.36a15.63,15.63,0,0,1,5.16-.88A1.73,1.73,0,0,0,62.48,51a1.83,1.83,0,0,0,.62-1.76c-.94-4.41-5.29-8.42-5.48-8.59a1.33,1.33,0,0,0-.3-.23l3.36-7.22a6.77,6.77,0,0,1,2.23.36l6.75,4.24,12.78,9.26a1.74,1.74,0,0,0,1,.34,1.79,1.79,0,0,0,1-3.24ZM59.37,15.57l4.9,2.27L50.5,47.47l-5.31-1.4ZM33.43,77.86A8.93,8.93,0,0,1,33.94,75l1.44.67A9,9,0,0,1,33.43,77.86Zm3.36-5.07-1.41-.67c-.09-.38-.22-1.82,1-6,.43-1.37.87-2.66,1.24-3.6l4.71,2.18C40.24,68.63,37.84,72.06,36.79,72.79ZM51.89,66a5.37,5.37,0,0,1-3.06,1l-1.31-5.51.6-1.3,3.39,1.07a2.21,2.21,0,0,0,0,.68h0a.45.45,0,0,0,0,.11v0l.56,3.22a.7.7,0,0,1-.16.66Zm6.71-1.5a5,5,0,0,1-2.74,1l-.71-3.11c1.24.36,2.46.73,3.6,1a1.94,1.94,0,0,0,0,.34.75.75,0,0,1-.17.73ZM43.45,58.71l1.61.54L43.82,61.9l-4.91-2.27L40.15,57A8.56,8.56,0,0,0,43.45,58.71Zm-3.7-14-.71.6a4.86,4.86,0,0,0-1.24,2,10.25,10.25,0,0,0-.3,5.27,5.5,5.5,0,0,0,.36,1.26c-.21.07-1,.2-2.37.41a2,2,0,0,0-.35.06,7.13,7.13,0,0,1-2.8,0l7.92-18.75.05-.15c.32-1.39,1.24-2.14,5-2.14h2.33l-5.59,12ZM59,48.28a20.08,20.08,0,0,0-3.51.73,10.57,10.57,0,0,0-1.78-.73l2.06-4.41A19.4,19.4,0,0,1,59,48.28Z" fill="#aaa"/>
    <path d="M33.73,83.46H12.46a1.71,1.71,0,0,0,0,3.42H33.73a1.71,1.71,0,1,0,0-3.42Z" fill="#a7a7a7"/>
  </g>
</svg>
