<svg xmlns="http://www.w3.org/2000/svg" width="96" height="96" viewBox="0 0 96 96">
  <title>inkingPressure</title>
  <g>
    <polygon points="38.99 14.3 33.57 14.26 33.38 47.91 38.8 46.97 38.99 14.3" fill="none"/>
    <path d="M24.44,40.22l0,.15v.15l.6,20.2a7.65,7.65,0,0,0,2.53-1.2l.28-.19c1.16-.77,1.82-1.24,2-1.35A5.84,5.84,0,0,1,29,57,10,10,0,0,1,27.1,52a4.68,4.68,0,0,1,.32-2.31l.38-.86,2.36-.4.09-13.26-1.93.88C24.7,37.71,24.16,38.81,24.44,40.22Z" fill="none"/>
    <path d="M35.86,81.69a9.63,9.63,0,0,0,.83-2.82H35.11A8.67,8.67,0,0,0,35.86,81.69Z" fill="none"/>
    <path d="M46.78,44.18A18.34,18.34,0,0,0,42,41.5l0,4.87a13.84,13.84,0,0,1,1.93-.07A20.62,20.62,0,0,1,46.78,44.18Z" fill="none"/>
    <path d="M33.69,69.82c.58,4.27,1.29,5.53,1.53,5.85h1.56c.69-1.09,1.44-5.2,1.76-9.62l-5.21,0C33.4,67,33.5,68.41,33.69,69.82Z" fill="none"/>
    <path d="M52.91,58.07c-1.18.19-2.42.38-3.7.55l1.92,2.53a4.92,4.92,0,0,0,2.08-2.06.87.87,0,0,0-.15-.73A1.59,1.59,0,0,1,52.91,58.07Z" fill="none"/>
    <path d="M35.71,60.21a8.37,8.37,0,0,1-2.44-.35l0,3,5.42,0,0-2.93L37,60.12A7.22,7.22,0,0,1,35.71,60.21Z" fill="none"/>
    <path d="M45.69,59.82l0,0a1.38,1.38,0,0,1-.26-.65l-3.53.43V61l3.49,4.47a5.4,5.4,0,0,0,2.35-2.22h0a.7.7,0,0,0-.15-.69Z" fill="none"/>
    <path d="M75,50.7a1.79,1.79,0,0,0-2.38-.82s-1.84.9-6.81,3.17c-4.52,2.08-11,1.2-11,1.18l-.28,0-.28,0c-6,1.11-17.5,2.33-17.61,2.36l-.13,0A4.87,4.87,0,0,1,32,55a7.08,7.08,0,0,1-1.28-3l8.84-1.54.18,0c.23-.06.53-.15.85-.21a1.45,1.45,0,0,0,.3-.06,9.52,9.52,0,0,1,3.36-.24l1,.17.66-.71a15.39,15.39,0,0,1,4.33-2.93,2.21,2.21,0,0,0,.81-3c-2.7-3.62-8.31-5.45-8.55-5.53a2.37,2.37,0,0,0-.36-.09l0-7.94a6.92,6.92,0,0,1,2.19-.6l7.88,1L67.67,33.3a2,2,0,0,0,.34,0,1.77,1.77,0,0,0,.35-3.51L52.83,26.72l-8.21-1-.17,0a7,7,0,0,0-2.31.39l.08-14.95H40.61l0-2.59a.94.94,0,0,0-.86-1L33,7.51a.93.93,0,0,0-.88.94l0,2.59h-1.7l0,7.22-2.38,0,0,3,2.38,0,0,1.82-2.38,0v1.48A1.43,1.43,0,0,0,29.24,26h1l0,5.29c-.05,0-.07,0-.09,0l-3.32,1.52c-2.21,1-6.77,3-5.91,7.89l.64,22.6.86.49a3.92,3.92,0,0,0,2,.47,9.06,9.06,0,0,0,5.12-1.88l.26-.17c.08-.05.15-.11.23-.15l0,2.31v0c.1,2.21.3,4.41.62,6.6.43,2.85,1.05,5.74,2.49,7.07.19,2.31.79,5.53,2.68,5.55s2.52-3,2.8-5.31c1.18-.95,2-3.24,2.55-7.24.3-2,.47-4.08.58-5.32l2.7,3.45,1.09-.47a12.68,12.68,0,0,0,2.12-1.2A8.06,8.06,0,0,0,50.27,65l1-.46c.41-.17,4.05-1.86,4.82-4.54a3.71,3.71,0,0,0,0-2c2.57.15,7.28.13,11.14-1.65,5-2.29,6.81-3.17,6.9-3.21A1.79,1.79,0,0,0,75,50.7ZM42,41.5a18.34,18.34,0,0,1,4.79,2.68,20.62,20.62,0,0,0-2.89,2.12,13.84,13.84,0,0,0-1.93.07ZM33.57,14.26l5.42,0L38.8,47l-5.42.94ZM30.16,48.47l-2.36.4-.38.86A4.68,4.68,0,0,0,27.1,52,10,10,0,0,0,29,57a5.84,5.84,0,0,0,.85,1c-.19.11-.85.58-2,1.35l-.28.19a7.65,7.65,0,0,1-2.53,1.2l-.6-20.2v-.15l0-.15c-.28-1.41.26-2.51,3.88-4.13l1.93-.88Zm5.7,33.22a8.67,8.67,0,0,1-.75-2.82h1.58A9.63,9.63,0,0,1,35.86,81.69Zm.92-6H35.22c-.24-.32-.95-1.58-1.53-5.85C33.5,68.41,33.4,67,33.33,66l5.21,0C38.22,70.47,37.47,74.58,36.78,75.67Zm1.89-12.81-5.42,0,0-3a8.37,8.37,0,0,0,2.44.35A7.22,7.22,0,0,0,37,60.12l1.67-.19Zm9,.39h0a5.4,5.4,0,0,1-2.35,2.22L41.86,61V59.56l3.53-.43a1.38,1.38,0,0,0,.26.65l0,0,1.86,2.74A.7.7,0,0,1,47.7,63.25Zm5.51-4.16a4.92,4.92,0,0,1-2.08,2.06l-1.92-2.53c1.28-.17,2.52-.36,3.7-.55a1.59,1.59,0,0,0,.15.29A.87.87,0,0,1,53.21,59.09Z" fill="#aaa"/>
    <ellipse cx="35.9" cy="86.83" rx="6.64" ry="1.66" fill="#aaa"/>
  </g>
</svg>
