<svg xmlns="http://www.w3.org/2000/svg" viewBox="0 0 1785.104 675.291">
  <defs>
    <style>
      .cls-1, .cls-2, .cls-3 {
        fill: none;
        stroke: #333;
        stroke-width: 4px;
      }

      .cls-1 {
        stroke-linecap: round;
        stroke-linejoin: round;
        stroke-miterlimit: 22.926;
      }

      .cls-2, .cls-3 {
        stroke-miterlimit: 10;
      }

      .cls-2 {
        fill-rule: evenodd;
      }
    </style>
  </defs>
  <g id="Group_281" data-name="Group 281" transform="translate(2 1.99)">
    <path id="Path_329" data-name="Path 329" class="cls-1" d="M1770.372,177.183q-10.233-17.361-20.466-34.675c-23.43-12.138-85.863-30.628-116.491-32.51-85.91-23.948-172.338-46.3-260.741-62.433-5.6,2.541-11.2,5.128-16.8,7.669-7.2-1.929-14.35-3.905-21.548-5.834.612-1.929,1.411-2.87,2.023-4.846-60.175-16.373-113.81-29.546-172.526-39.709-18.772-1.458-35.521-.235-50.389,3.67C1034.3-1.412,939.83.469,887.042,7.1A621.047,621.047,0,0,0,749.755,38.814c-45.4,11.621-83.558,32.369-121.62,53.306-1.929-2.211-2.211-3.952-7.1-4.658-4.94-.706-9.927,1.364-18.772,6.634s-17.172,11.715-27.147,19.76c.376,1.929-2.352,6.069-3.246,10.068-11.433,7.434-21.736,14.114-33.169,21.5-7.528,4.423-14.773,7.01-22.865,9.739a103.213,103.213,0,0,1-19.854,4.517q-36.133,4.234-72.313,8.422c-19.2-4.987-49.777-6.681-95.32-5.5-56.975,1.411-142.7,40.65-171.256,76.312-9.41,9.08-16.467,18.3-26.018,27.194C87.786,306.518,41.726,346.509,1.5,388.994c4.7,7.81,9.363,15.573,14.067,23.383,5.316,2.211,10.586,4.375,15.9,6.587-1.929,1.411-5.787,3.34-7.716,4.752-1.6,5.316-1.27,10.021-2.87,15.338-1.647,1.694-3.293,3.387-4.94,5.128,4,13.879,8.045,27.758,12.044,41.638-9.221,20.466-15.2,42.908-19.525,66.291-.047,2.305-.141,4.611-.188,6.916h4.752c-1.694.988-3.387,1.929-5.128,2.917-.282,2.117.47,2.07.188,4.187L23.424,577.8C41.4,587.867,62.569,596.241,84.4,603.345c34.91,13.5,54.905,16.561,94.191,24.23,13.926,1.223,31.9,8.328,45.825,8.139,51.33,1.223,114.845,2.917,166.127,4.14,54.67.847,109.293,2.07,163.963,2.917,36.886-4,75.512-5.646,109.952-12.75-1.458-42.108-12.515-78.712-3.67-123.6s31.1-101.859,56.223-136.957,54.435-51.518,89.109-66.1,93.532-3.529,119.267,10.257c-4,5.411-3.34,12.562.141,20.8,43.9,99.789,42.3,157.988,28.841,242.816q272.2-52.223,544.442-104.447,27.735-2.188,55.517-4.375l2.54-6.916c4.846-4.376,9.739-8.751,14.585-13.126-6.351-70.619,26.206-225.643,97.719-249.214C1703,188,1725.018,197.837,1742.99,217.5c13.6,14.867,21.548,35.568,25.5,58.2,3.058,19.854,3.529,40.885-2.729,65.115l-1.553,37.874c4.987-13.032,12.233-25.406,14.961-39.05,3.905-19.619,4.046-39.379,2.729-59.328-1.129-17.126-6.022-33.922-10.021-50.577Q1771.243,203.341,1770.372,177.183Z" transform="translate(-1.5 -1.535)"/>
    <path id="Path_330" data-name="Path 330" class="cls-1" d="M419.4,1026.855c15.385,30.346,46.672,90.568,47.425,91.7.565.894,8.375,17.5-2.258,21.924-1.27.518-3.811,3.246-5.975,5.081l-13.738,11.856.659,5.834c86.239-26.112,211.717-58.622,289.676-59.422q27.382,31.052,54.858,62.1,33.592-3.67,67.185-7.292v-9.5c-9.5.988-19.008,1.929-28.464,2.917q-9.527-30.7-19.008-61.351c11.2-6.351,22.395-12.656,33.592-19.008-2.446-14.349-4.846-28.746-7.293-43.1q-68.667,18.631-137.287,37.262l-12.421,4.376c2.211-6.069,4.375-12.185,6.587-18.255q-21.877,8.045-43.8,16.091c-20.184,2.447-46.342,4.469-56.27,4.94-9.974.471-18.067-8.7-23.806-14.632L520.977,1008.6l-64.456,4.7c-11.056.612-22.16,1.27-33.216,1.882C421.941,1019.045,420.67,1022.95,419.4,1026.855Z" transform="translate(-222.786 -534.761)"/>
    <path id="Path_331" data-name="Path 331" class="cls-1" d="M1547.6,669.8a140.082,140.082,0,0,0-42.673,6.681c-65.82,21.172-113.48,190.969-112.351,200.19,10.539,85.11,68.173,149.99,146.273,149.99,86.569,0,150.178-73.4,156.718-178.548C1702.155,742.913,1634.124,669.8,1547.6,669.8Z" transform="translate(-738.09 -355.36)"/>
    <path id="Path_332" data-name="Path 332" class="cls-1" d="M1610.631,754.581C1540.906,757.5,1487.6,842.843,1487.6,901.936s32.463,132.206,102.189,135.875,134.746-61.069,136.863-144.862C1728.675,809.157,1680.357,751.664,1610.631,754.581Z" transform="translate(-788.417 -400.197)"/>
    <path id="Path_333" data-name="Path 333" class="cls-1" d="M937.873,671.4c-5.834,9.5-15.526,21.924-18.443,26.676s-11.668,9.833-26.112,10.774-164.81,16.373-170.173,15.526c-27.288,3.152-27.429-3.011-34.345-5.458,53.353-16.467,123.5-35.38,165.8-43.8,18.114-3.623,64.88-15.2,81.817-15.338C943.472,659.446,943.566,662.786,937.873,671.4Z" transform="translate(-365.438 -350.041)"/>
    <path id="Path_334" data-name="Path 334" class="cls-1" d="M915.29,675.273c-3.011,4.94-6.681,10.915-15.15,14.773-4.893,2.258-169.515,39.991-171.538,39.662-29.923,3.717-37.215-4.375-39.8-5.269,19.007-8.61,179.019-48.836,195.438-50.295,6.869-.612,22.865-3.9,29.17-3.952C916.137,670.051,917.454,672.027,915.29,675.273Z" transform="translate(-365.438 -355.564)"/>
    <path id="Path_335" data-name="Path 335" class="cls-1" d="M1018.208,775.2l-31.287,2.729-34.486,21.642L951.4,823l13.879-3.246,6.21-10.633,20.8-5.834L1008,787.95l3.67-.376Z" transform="translate(-504.489 -411.172)"/>
    <path id="Path_336" data-name="Path 336" class="cls-1" d="M635.945,798.677c3.246-1.035,6.446-2.07,9.692-3.105,11.715-257.777,136.534-370.223,279.8-308.636,11.668-3.482,23.289-7.01,34.957-10.492q18.278-29.923,36.509-59.892c-.141-9.739-.235-19.478-.376-29.217q15.667-29.217,31.381-58.434c-9.739.235-24.371.612-29.264.753-11.1.423-19.337,5.128-40.885,19.337-21.548,14.256-30.864,18.819-36.886,20.09s-89.721,9.5-99.507,11.574-140.3,5.928-174.643,3.011-59.516-1.882-71.372-7.339c-6.916,1.835-26.582,7.01-40.461,10.633-25.312-2.917-52.835-6.022-78.147-8.939l7.481-9.5c-.47-1.27-.988-2.541-1.458-3.858-1.788.047-3.529.141-5.316.188-.047-9.221,12.609-18.725,30.864-26.818-.141-1.364-.329-2.776-.47-4.14l-64.221,7.481c-89.062,22.96-196.662,31.9-266.575,70.855C106.559,465.34,54.947,512.059,1.5,562.306c4.7,7.81,9.363,15.573,14.067,23.383,24.512,13.738,79.982,27.1,123.5,31q31.052,3.458,62.057,6.916c4.987,3.67,9.974,7.292,14.961,10.962l95.7-4.375q17.361-10.586,34.675-21.172l101.906-22.3c4.611-1.082,9.269-2.211,13.879-3.293l6.21-10.586c6.916-1.929,13.879-3.9,20.8-5.834l15.714-15.338c.612-.047,3.058-.282,3.67-.376,2.211-4.14,4.375-8.281,6.587-12.421-11.809,1.035-23.665,2.117-35.474,3.152q-106.282,9.386-212.517,18.819,49.259-14.82,98.566-29.687,72.2-17.714,144.344-35.474c20.8-3.717,51.141-11.339,62.339-11.1,11.15.188,1.976,8.751-5.975,22.771-4.658,8.233-27.9,43.9-48.507,82.852-14.679,27.805-25.83,57.211-37.827,79.794-2.823,7.339-5.693,14.726-8.516,22.066-2.211,6.069-4.376,12.185-6.587,18.255q74.877-20.819,149.708-41.638c2.446,14.35,4.846,28.746,7.292,43.1L599.06,724.764q11.292,32.957,22.63,65.867c4.752-.471,9.5-.988,14.256-1.458C635.945,792.372,635.945,795.524,635.945,798.677Z" transform="translate(-1.5 -174.848)"/>
    <path id="Path_337" data-name="Path 337" class="cls-1" d="M1609.975,481.638s-96.449-32.463-163.634-29.546-116.115,20.466-116.115,20.466-89.815,35.051-112.492,65.726c-22.63,30.675-58.434,82.523-58.434,82.523l138.745-10.21s54.058-82.9,134.746-95.32c50.906-7.857,74.9-3.34,140.627,26.253Z" transform="translate(-614.576 -239.982)"/>
    <path id="Path_338" data-name="Path 338" class="cls-1" d="M1521.264,329.2s-32.134,3.9-44.178,13.032-34.345,23.383-34.345,23.383a113.159,113.159,0,0,1-42.344,10.209c-24.465,1.082-102.236,10.21-102.236,10.21q-69.373,13.9-138.745,27.758s-59.892,20.09-77.394,31.758c-17.549,11.668-24.465,22.254-24.465,22.254q-57.3,6.422-114.656,12.8,40.156-14.256,80.358-28.464c-14.35-1.458-28.746-2.917-43.1-4.375q72.689-16.443,145.332-32.887,82.782-15.314,165.61-30.675,61.821-7.2,123.69-14.444c23.477-1.553,57.587-39.285,82.429-39.944Z" transform="translate(-499.988 -175.007)"/>
    <path id="Path_339" data-name="Path 339" class="cls-1" d="M3.4,827.518l48.742,16.7q42.767,7.269,85.581,14.491L450.452,827l-1.035,23.477-101.906,22.3L312.836,893.95l-95.7,4.375-14.961-10.962q-31.052-3.458-62.057-6.916c-47.848-4.281-89.2-14.491-123.5-31Z" transform="translate(-2.506 -438.601)"/>
    <path id="Path_340" data-name="Path 340" class="cls-2" d="M214.842,717.005,202.8,722.651l8.422-8.751L142.2,765.371l18.067-10.209L146.2,767.582Z" transform="translate(-76.003 -378.712)"/>
    <path id="Path_341" data-name="Path 341" class="cls-3" d="M214.842,717.005,202.8,722.651l8.422-8.751L142.2,765.371l18.067-10.209L146.2,767.582Z" transform="translate(-76.003 -378.712)"/>
    <path id="Path_342" data-name="Path 342" class="cls-2" d="M283.317,720.905,201.5,766.354,278.377,717.8l-18.443,14.773Z" transform="translate(-107.404 -380.777)"/>
    <path id="Path_343" data-name="Path 343" class="cls-3" d="M283.317,720.905,201.5,766.354,278.377,717.8l-18.443,14.773Z" transform="translate(-107.404 -380.777)"/>
    <path id="Path_344" data-name="Path 344" class="cls-1" d="M356.113,943.312,213.181,953.38,171.308,926.7l-65.162-14.067L48.7,894.146l7.669-4.046,58.716,16.42,48.977,7.339,62.1,6.916,14.961,10.962,95.649-4.376Z" transform="translate(-26.493 -472.013)"/>
    <path id="Path_345" data-name="Path 345" class="cls-1" d="M248.179,1072.026l-110.657-6.21c-12.044-4.611-24.089-9.268-36.133-13.879-8.045-1.929-16.09-3.9-24.089-5.834-4.281-7.81-8.516-15.573-12.8-23.383.612-2.823,1.506-7.01,1.835-8.422l5.081-13.267L42.437,914.038c-.8-2.447,1.929-10.21,2.87-15.338q28.723,9.245,57.4,18.49,32.6,7.057,65.162,14.067,20.889,13.338,41.826,26.676c4.47.047,8.939-.988,13.409-.941l-3.482,11.715c13.268,30.158,26.206,57.117,39.473,87.275C264.128,1065.815,256.836,1071.32,248.179,1072.026Z" transform="translate(-23.1 -476.567)"/>
    <path id="Path_346" data-name="Path 346" class="cls-1" d="M774.085,1173.8c-106.235,12.75-205.13,38.909-300.685,71.137.235,1.929.47,3.905.659,5.834,67.514-20.654,229.172-62.715,289.77-59.422q27.382,31.052,54.764,62.057c6.163-.659,12.327-1.318,18.49-2.023Q805.608,1212.568,774.085,1173.8Z" transform="translate(-251.379 -622.237)"/>
    <path id="Path_347" data-name="Path 347" class="cls-1" d="M1101.01,1108.828c32.887-17.078,62.574-36.745,90.568-57.728,2.447,14.35,4.846,28.746,7.293,43.1-11.2,6.351-22.4,12.656-33.593,19.007q9.527,30.7,19.008,61.351c9.5-.988,19.008-1.929,28.464-2.917v9.5q-25.194,2.752-50.389,5.458l-16.8,1.835q-27.382-31.052-54.764-62.057C1094.188,1120.5,1097.575,1114.662,1101.01,1108.828Z" transform="translate(-578.304 -557.266)"/>
    <path id="Path_348" data-name="Path 348" class="cls-1" d="M498.336,1155.5c-.565,4.752-3.246,6.681-5.364,7.575-6.54,5.646-13.032,11.245-19.572,16.891,96.308-34.769,209.082-59.7,300.685-71.137,30.911-19.337,59.657-38.391,90.568-57.728q-74.877,20.819-149.708,41.638c2.211-6.069,4.375-12.186,6.587-18.255q-21.877,8.045-43.8,16.09l-52.694,4.7c-8.139.753-11.48-.941-15.244-3.435l-21.642,5.081c7.292,4.987,9.974,5.081,21.877,4.611l24.606-.941c-6.446,4.752-75.371,31.287-85.44,35.8Q523.859,1145.926,498.336,1155.5Z" transform="translate(-251.379 -557.266)"/>
    <path id="Path_349" data-name="Path 349" class="cls-1" d="M16.2,1096.891c8.375-4.187,20.842-9.551,22.818-10.962,1.929-1.411,13.409-5.175,8.375-21.172-5.081-16.043-11.621-34.157-11.621-34.157A296.19,296.19,0,0,0,16.2,1096.891Z" transform="translate(-9.284 -546.411)"/>
    <path id="Path_350" data-name="Path 350" class="cls-1" d="M51.7,1042.187l-31.146,9.033-4.752-.141.188-6.822,24.136-11.715s11.433-6.493,7.481-18.725c-3.905-12.233-12.091-35.851-12.091-35.851L23.469,936.328l4.94-5.128,28.935,86.992-5.081,13.267-1.835,8.422Z" transform="translate(-9.072 -493.776)"/>
    <path id="Path_351" data-name="Path 351" class="cls-1" d="M764.57,1210.886q-96.966,22.371-193.933,44.7-47.919,7.339-95.837,14.726C578.259,1238.88,710.135,1208.816,764.57,1210.886Z" transform="translate(-252.121 -641.822)"/>
    <path id="Path_352" data-name="Path 352" class="cls-1" d="M256.4,1049.16q-21.172-6.14-42.3-12.279c-3.9,1.835-7.81,3.67-11.668,5.457-12.515-3.387-25.077-6.822-37.592-10.209-2.823-4-5.6-8.045-8.422-12.044-10.727-2.541-21.407-5.128-32.134-7.669-3.387-3.058-6.822-6.069-10.209-9.127-9.974-1.6-19.948-3.152-29.923-4.752q-13.126-41.638-26.3-83.275c-3.293-.141-6.587-.235-9.88-.376,2.823-2.446,5.6-4.846,8.422-7.292L45.67,898.7c-.941,5.128-1.929,10.209-2.87,15.338q14.467,43.472,28.935,86.992L66.653,1014.3c5.458,8.986,11.668,18.4,17.126,27.382l-5.975,4.47c8,2.023,16.326,3.811,23.9,5.787,12.044,4.611,24.089,9.269,36.133,13.879q54.623,3.035,109.2,6.116C261.1,1071.743,264.444,1064.263,256.4,1049.16Z" transform="translate(-23.369 -476.567)"/>
    <path id="Path_353" data-name="Path 353" class="cls-1" d="M121.826,1131l-13.126,4.564,13.691,27.57,11.668-5.834Z" transform="translate(-58.264 -599.574)"/>
    <path id="Path_354" data-name="Path 354" class="cls-1" d="M114.679,1124.447,97.6,1132.022l3.387-8.422Z" transform="translate(-52.387 -595.656)"/>
    <path id="Path_355" data-name="Path 355" class="cls-1" d="M268.677,1192.557l-64.644,23.43L167.9,1202.108l63.139-19.807Z" transform="translate(-89.612 -626.738)"/>
    <line id="Line_1" data-name="Line 1" class="cls-1" x1="30.44" y2="10.398" transform="translate(70.478 535.849)"/>
    <path id="Path_356" data-name="Path 356" class="cls-1" d="M642.412,1090.222l-25.735.988c-6.352.235-14.444,2.588-25.547-8.939-11.15-11.48-40.7-50.671-40.7-50.671L488,1036.352l69.02,89.627Z" transform="translate(-259.11 -546.94)"/>
    <path id="Path_357" data-name="Path 357" class="cls-1" d="M557.155,1008.6l-6.822,10.868-62.433,4.7,8-11.009Z" transform="translate(-259.057 -534.761)"/>
    <path id="Path_358" data-name="Path 358" class="cls-1" d="M520.695,1131.374q-25.477,9.6-50.906,19.149c-.329-2.117,2.635-3.858-6.493-21.783s-29.593-55.987-43.9-84.357c10.774-.894,21.5-1.788,32.275-2.682Q486.114,1086.584,520.695,1131.374Z" transform="translate(-222.786 -552.288)"/>
    <path id="Path_359" data-name="Path 359" class="cls-1" d="M422.835,1020.323l-3.435,11.668,32.228-2.682,8-11.009Z" transform="translate(-222.786 -539.897)"/>
    <path id="Path_360" data-name="Path 360" class="cls-1" d="M835.7,990.98q-26.253-2.964-52.506-5.881c-6.587-3.058-13.127-6.069-19.713-9.127Q750.138,947.319,736.8,918.62l35.427-20.466Q816.617,887,860.96,875.9c4.846,1.929,9.739,3.905,14.585,5.834,0,0,11.338,3.293,6.916,13.126-4.376,9.88-11.1,29.123-16.42,42.014-5.316,12.844-5.222,22.536,1.129,28.558-2.117,5.411-4.187,10.821-6.3,16.232C852.539,984.817,844.117,987.875,835.7,990.98Z" transform="translate(-390.854 -464.494)"/>
    <path id="Path_361" data-name="Path 361" class="cls-1" d="M1040.766,774.988l16.467-.188-23.618,38.438s-6.163,11.386-16.42,6.587L994,808.957l20.8-5.834,15.714-15.338,3.67-.376Z" transform="translate(-527.046 -410.96)"/>
    <path id="Path_362" data-name="Path 362" class="cls-1" d="M811.507,869.9,695.722,895.494,661,916.666l35.71-1.223,35.427-20.419,88.733-22.3Z" transform="translate(-350.717 -461.317)"/>
    <path id="Path_363" data-name="Path 363" class="cls-1" d="M1053.825,736.33l-27.241,44.319c-4.328,6.54-9.5,9.692-16.279,6.3q-11.574-5.434-23.195-10.868l-6.21,10.586q12.209,4.446,24.418,8.845s9.974,3.2,6.446,12.985-14.35,35.568-18.631,48.083c-4.281,12.468-1.035,18.49,3.34,22.489,14.115-27.006,23.524-54.011,37.639-81.017,8.7-16.655,18.208-33.592,28.276-50.247,7.1-11.715,14.914-23.195,21.03-34.91l-11.009,15.385A31.245,31.245,0,0,1,1053.825,736.33Z" transform="translate(-520.11 -378.183)"/>
    <path id="Path_364" data-name="Path 364" class="cls-1" d="M781.843,1039.06l-18.537,6.775-48.695,4.517-23.571-6.54-55.94-57.4,31.522-2.541-19.337-15.949L683,966.7l26.629,57.352,19.713,9.127Z" transform="translate(-337.003 -512.574)"/>
    <path id="Path_365" data-name="Path 365" class="cls-1" d="M628.476,730.059C524.217,740.645,443.859,748.784,339.6,759.323c46.437-20.7,120.4-43.1,192.568-64.785,76.406-22.96,153.895-43.708,217.363-49.871,20.043-1.929,22.113-.612,16.608,10.257-16.843,33.451-41.873,65.962-58.716,99.413-19.713,39.144-37.4,79.276-50.906,118.42L644.1,877.132c22.254-57.634,46.343-110.657,79.276-166.645,9.692-16.467,19.431-33.5,31-50.577,11.292-14.82-17.549-7.057-28.7-5.128-109.293,27.288-217.833,54.482-327.126,81.77q132.182-14.044,264.411-28.135Q645.743,719.285,628.476,730.059Z" transform="translate(-180.53 -341.659)"/>
    <path id="Path_366" data-name="Path 366" class="cls-1" d="M312.8,786.9c-7.951.8-15.949,1.6-23.9,2.4q93.861-36.839,187.816-73.772Q537.479,705.786,598.2,696C499.911,720.794,405.25,751.94,312.8,786.9Z" transform="translate(-153.683 -369.234)"/>
    <path id="Path_367" data-name="Path 367" class="cls-1" d="M515.224,394.7,412.283,429.233s-23.759,7.669-35.8,24.841-32.134,49.307-32.134,49.307L336.3,530.387l39.05,8.751,283.466-56.693L376.9,537.4l-36.7-8.233,12.138-30.817,25.924-38.815c8.563-10.162,26.3-21.266,34.533-25.218C420.987,430.41,515.224,394.7,515.224,394.7Z" transform="translate(-178.783 -209.69)"/>
    <path id="Path_368" data-name="Path 368" class="cls-1" d="M652.3,406.882c-123.5,34.063-206.259,73.536-275,131.217,5.175,1.176,8.61,1.929,13.785,3.105,64.127-48.789,148.2-92.073,264.693-122.843,2.494-3.152,4.987-6.352,7.481-9.5-.47-1.27-.988-2.541-1.458-3.858-1.788.047-3.529.141-5.317.188C655.073,405.753,653.708,406.317,652.3,406.882Z" transform="translate(-200.493 -215.144)"/>
    <path id="Path_369" data-name="Path 369" class="cls-1" d="M741.4,441.345C631.867,470.7,532.266,504.719,455.859,549.7l-41.732,8.139-7.528-1.694Q512.952,474.914,671.293,433.3Z" transform="translate(-216.008 -230.13)"/>
    <path id="Path_370" data-name="Path 370" class="cls-1" d="M775.23,349.6c-60.222,14.491-119.691,30.487-176.007,52.788-40.367,14.067-29.076,23.054,19.525,7.481,47-17.078,94.8-30.77,142.791-43.473C763,360.421,768.831,353.928,775.23,349.6Z" transform="translate(-304.982 -185.809)"/>
    <path id="Path_371" data-name="Path 371" class="cls-1" d="M970.7,370.558c.8-13.032,8.7-22.865,28.276-28.323l.8-2.494c.424-.047.847-.094,1.317-.141.141,1.364.329,2.776.471,4.14C986.7,350.327,970.888,359.972,970.7,370.558Z" transform="translate(-514.709 -180.514)"/>
    <path id="Path_372" data-name="Path 372" class="cls-1" d="M1591.7,110.673c-43.99,36.18-80.735,73.583-111.081,111.693-14.491,8.563-20,11.668-30.534,13.55l-109.858,12.138c-26.159,2.87-215.387,5.6-230.818-5.552l-25.547,6.681c-29.217-2.164-64.456-2.541-73.866-14.114l72.689-54.058c52.647-38.015,114.8-71.654,177.419-95.743C1352.887,64,1480.623,82.679,1591.7,110.673Z" transform="translate(-535.519 -40.978)"/>
    <path id="Path_373" data-name="Path 373" class="cls-1" d="M1270.017,189.282c-20.983,8.375-34.157,17.878-56.317,31.8,8.092-10.257,29.405-26.112,43.19-33.075,2.917-1.458,3.623-2.588,6.21-2.87C1265.688,184.812,1267.9,186.036,1270.017,189.282Z" transform="translate(-643.382 -98.698)"/>
    <path id="Path_374" data-name="Path 374" class="cls-1" d="M1915.3,458.411q47.283-2.682,94.614-5.411c.141,9.739.235,19.478.376,29.217A693.922,693.922,0,0,0,1915.3,458.411Z" transform="translate(-1014.891 -240.561)"/>
    <path id="Path_375" data-name="Path 375" class="cls-1" d="M293.686,506.435,230.5,560.117,279.477,504.6Z" transform="translate(-122.76 -267.884)"/>
    <path id="Path_376" data-name="Path 376" class="cls-1" d="M1036.27,442.362q-87.015.706-174.078,1.458s-67.185,9.5-96.025,17.878c-28.841,8.422-124.866,37.921-139.31,43.708L530.6,544.08l-19.2,3.764a863.83,863.83,0,0,1,103.459-49.683c58.528-23.242,119.879-41.638,182.077-58.669,2.682.329,5.364.612,8,.941,13.5-3.529,26.959-7.1,40.462-10.633,57.963,10.774,147.12,9.739,230.819,5.552Q1056.242,438.81,1036.27,442.362Z" transform="translate(-271.501 -228.276)"/>
    <path id="Path_377" data-name="Path 377" class="cls-1" d="M1057.874,456.5,883.8,457.959c-29.64,4.564-59.14,8.563-86.71,15.432-26.112,6.493-53.165,15.667-78.288,23.383q-90.192,27.805-166.6,61.445l222.021-43,143.262-32.7Z" transform="translate(-293.105 -242.414)"/>
    <path id="Path_378" data-name="Path 378" class="cls-1" d="M639.169,370.77c-120.443,32.981-212.8,78.9-279.184,132.911-5.128-1.129-10.257-2.305-15.385-3.435q6.069-15.385,12.138-30.817c8.657-12.938,21.6-32.369,25.924-38.815,2.447-3.717,7.528-7.857,14.632-12.985,5.316-3.858,11.668-8.657,19.854-12.233,19.149-8.28,88.215-36.6,102.518-39.662s57.116-12.327,85.675-18.443q31.475-3.67,62.951-7.293l-.8,2.494C651.966,346.728,640.251,354.773,639.169,370.77Z" transform="translate(-183.178 -180.726)"/>
    <path id="Path_379" data-name="Path 379" class="cls-1" d="M1067.907,785.689l-54.388,99.7c-6.21,13.174-7.245,24.653-2.635,31,18.725-45.919,42.3-89.815,66.432-132.158C1074.118,782.725,1070.636,782.866,1067.907,785.689Z" transform="translate(-534.474 -415.45)"/>
    <path id="Path_380" data-name="Path 380" class="cls-1" d="M1612.979,764.184c-66.573,2.823-117.479,85.487-117.479,142.7s30.958,128.018,97.531,131.547,128.63-59.139,130.606-140.251C1725.707,816.973,1679.553,761.361,1612.979,764.184Z" transform="translate(-792.6 -405.284)"/>
    <path id="Path_381" data-name="Path 381" class="cls-1" d="M1615.416,782.289c-63.515,2.635-112.116,80.17-112.116,133.805s29.546,120.067,93.109,123.36c63.515,3.293,122.749-55.47,124.678-131.547S1678.978,779.607,1615.416,782.289Z" transform="translate(-796.73 -414.873)"/>
    <path id="Path_382" data-name="Path 382" class="cls-1" d="M1710.869,962.681l-52.176-7.81L1626.7,925.278l6.21-25.547,39.1-8.939,51.565,20.184.471-11.809-51.142-16.42-38.532,12.232-.894-9.315,37.45-9.5,33.593-56.975-8.657-12.656-28.794,63.609-39.614,11.856-16.984-13.315,12.985-38.156,23.9-31.052,13.032-21.313L1648.3,773.5l-28.7,48.977-6.21,9.5-8.939,29.782,5.128-29.593-35.662-51.753-12.091,7.575,39.521,47.472-8.234,35.757-17.5,16.091-22.3-7.293L1526.393,824.5l-9.645,15.385,33.122,47.425,10.586,3.67-.753,4.7-10.4-3.058L1496,920.008l1.6,16.138,50.247-32.228,21.548,3.293,6.728,23.007L1567,962.728l-54.529,22.254,7.151,12.75,52.882-27.147,5.646-20.654,4,1.27-6.351,20.278,1.364,69.631,13.079,2.07-6.775-66.95,7.857-35.8,21.172-2.541,26.441,31.758-4.093,67.42,13.879-6.116-.471-65.3-17.5-19.9,2.541-2.588,18.067,18.443,54.482,11.433Z" transform="translate(-792.864 -410.271)"/>
    <path id="Path_383" data-name="Path 383" class="cls-1" d="M1692.983,995.18c-13.268.565-23.383,16.7-23.383,27.9s6.163,25.03,19.431,25.735,25.594-11.574,26.018-27.429C1715.425,1005.531,1706.251,994.663,1692.983,995.18Z" transform="translate(-884.789 -527.646)"/>
    <path id="Path_384" data-name="Path 384" class="cls-1" d="M1712.132,1021.586c-7.857.329-13.832,9.88-13.832,16.514s3.67,14.82,11.48,15.244,15.149-6.822,15.385-16.232S1719.989,1021.257,1712.132,1021.586Z" transform="translate(-899.986 -541.631)"/>
    <path id="Path_385" data-name="Path 385" class="cls-1" d="M1717.722,1034.693c-4.8.188-8.422,6.022-8.422,10.068s2.211,9.033,7.01,9.268,9.221-4.187,9.363-9.88S1722.521,1034.5,1717.722,1034.693Z" transform="translate(-905.81 -548.574)"/>
    <path id="Path_386" data-name="Path 386" class="cls-1" d="M1734.057,714.169c-41.214-17.031-79.276-12.844-114.656,10.021,2.07,4.611,4.14,9.269,6.21,13.879,31.9-19.9,66.526-26.206,105.717-9.127C1732.222,724,1733.116,719.109,1734.057,714.169Z" transform="translate(-858.207 -373.335)"/>
    <path id="Path_387" data-name="Path 387" class="cls-1" d="M1883.774,741.97l-5.269,4.846-6.3-4.564,5.74-4.752Z" transform="translate(-992.069 -391.209)"/>
    <path id="Path_388" data-name="Path 388" class="cls-1" d="M1884.682,760l-4.281,3.67,5.175,3.764,4.281-3.482Z" transform="translate(-996.411 -403.123)"/>
    <path id="Path_389" data-name="Path 389" class="cls-1" d="M1908.105,767.016,1905,764.381l4.7-4.281,3.152,2.635Z" transform="translate(-1009.437 -403.176)"/>
    <path id="Path_390" data-name="Path 390" class="cls-1" d="M1907.305,783.975l-3.1-2.305,4.328-3.67,2.964,2.588Z" transform="translate(-1009.014 -412.654)"/>
    <path id="Path_391" data-name="Path 391" class="cls-1" d="M1926.805,781.881l-3.905-3.764,4.328-3.717,3.811,3.764Z" transform="translate(-1018.916 -410.748)"/>
    <path id="Path_392" data-name="Path 392" class="cls-1" d="M2125.846,916.711q-58.222,12.35-116.491,24.653c-4.422-.235-8.892-.518-13.315-.753,12.985-70.1,11.056-144.956-30.44-232.418l28.088-.706c8.845-.235,15.855,3.152,27.523,15.432,11.668,12.327,96.449,136.063,95.179,138.651s-3.529,7.057-5.316,10.586c5.6,7.622,11.2,15.2,16.8,22.818v4c1.27,1.788,2.541,3.529,3.811,5.317C2129.751,908.43,2127.822,912.571,2125.846,916.711Z" transform="translate(-1041.526 -375.311)"/>
    <path id="Path_393" data-name="Path 393" class="cls-1" d="M2172.175,1094.1l-113.575,32.6,4.752-29.311,96.966-39.9Z" transform="translate(-1090.771 -560.654)"/>
    <path id="Path_394" data-name="Path 394" class="cls-1" d="M2006.6,740.111c27.617,61.916,35.662,124.913,29.217,188.8q48.483-19.972,96.966-39.9c-29.17-41.967-82.852-119.408-87.462-125.9s-7.434-10.586-13.126-16.42C2026.455,740.863,2015.069,737.758,2006.6,740.111Z" transform="translate(-1063.236 -392.173)"/>
    <path id="Path_395" data-name="Path 395" class="cls-1" d="M2120.314,892.816l-34.3-2.588L2080.7,883.5Z" transform="translate(-1102.473 -468.519)"/>
    <path id="Path_396" data-name="Path 396" class="cls-1" d="M2066.442,789.9l-17.173,6.916s-5.128,2.352-1.459,11.856,8.939,22.63,8.939,22.63l5.834,2.541,41.167,9.692Z" transform="translate(-1084.357 -418.956)"/>
    <path id="Path_397" data-name="Path 397" class="cls-1" d="M2124.616,797.98l11.15-3.764,6.916-33.875L2115.113,745l-42.626-66.667-34.157-54.388a71.742,71.742,0,0,1-11.15-33.216c-1.27-19.149,1.647-44.178,1.647-44.178l2.211-22.254-33.875,55.564-34.957,10.492c-3.905,5.787-3.576,12.75.518,20.8l27.711-.706s15.1-2.258,33.922,23.242c18.772,25.5,24.088,33.028,24.088,33.028l24.888,36.227,39.756,61.633-5.316,10.586Z" transform="translate(-1038.273 -278.316)"/>
    <path id="Path_398" data-name="Path 398" class="cls-1" d="M2204.8,859.9l43.8,79.653-1.506,4.187L2243,942.281l-5.269,10.586,16.8,22.818,11.1-3.717,6.963-33.875-27.57-15.338Z" transform="translate(-1168.187 -456.022)"/>
    <path id="Path_399" data-name="Path 399" class="cls-1" d="M2629.4,963.691l-16.373,2.4L2533.421,950l-90.568,14.256-25.83,16.043-234.63,45.59-18.255,6.822-5.834,12.421-116.491,24.653-13.315-.753-1.6,10.4,544.442-104.447,55.517-4.375Z" transform="translate(-1073.986 -503.731)"/>
    <path id="Path_400" data-name="Path 400" class="cls-1" d="M2357.4,1032.488q108.117-33.663,216.187-67.373c6.869-1.694,17.219-4.7,20.984-.564,3.764,4.187,1.694,15.055-4.94,18.255-7.81,3.058-15.667,6.069-23.476,9.127Q2461.776,1012.187,2357.4,1032.488Z" transform="translate(-1248.991 -510.331)"/>
    <path id="Path_401" data-name="Path 401" class="cls-1" d="M2310.5,992.8v4l290.664-91.979c7.246-2.494,36.368-13.879,69.913-3.105,33.593,10.774,92.215,29.029,92.215,29.029l7.669-2.917-91.6-28.182c-11.338-3.481-37.027-13.173-71.137-2.682-95.555,29.405-191.345,61.257-286.571,92.073Z" transform="translate(-1224.157 -473.137)"/>
    <path id="Path_402" data-name="Path 402" class="cls-1" d="M2996.51,920.553l-37.074,12.8L2911.4,940.83l1.271-18.819,22.112-7.292s23.383-5.646,37.591-1.458C2986.677,917.448,2996.51,920.553,2996.51,920.553Z" transform="translate(-1542.344 -483.458)"/>
    <path id="Path_403" data-name="Path 403" class="cls-1" d="M2769.45,940.05l1.459-6.728-7.669,2.917-86.757-27.288s-27.946-13.973-70.054-.47c-42.061,13.456-296.027,93.861-296.027,93.861l3.811,5.316,18.254-6.869L2567.1,955.246l25.829-16.044,90.568-14.256,79.605,16.091Z" transform="translate(-1224.104 -478.632)"/>
    <path id="Path_404" data-name="Path 404" class="cls-1" d="M2388.5,961.98l247.145-97.2s28.84-13.5,63.185-5.457c36.651,8.563,83.652,29.358,119.691,44.743.282.141,2.352.753,2.071.894l-8.328,4.093-104.118-34.2s-26.818-10.962-59.139-2.211C2616.637,881.387,2388.5,961.98,2388.5,961.98Z" transform="translate(-1265.459 -454.361)"/>
    <path id="Path_405" data-name="Path 405" class="cls-1" d="M2812.263,923.1l-107.928-35.521s-28.794-9.316-56.834-.47-259,88.968-259,88.968l250.532-80.641c11.056-3.576,31.1-12.091,62.81-6.069C2724.613,895.813,2812.263,923.1,2812.263,923.1Z" transform="translate(-1265.459 -468.41)"/>
    <path id="Path_406" data-name="Path 406" class="cls-1" d="M2291.6,951.593l205.742-78.524c14.067-20.137,26.912-38.532,40.979-58.669-84.922,42.061-170.832,80.123-263.517,114.374Z" transform="translate(-1205.253 -431.929)"/>
    <path id="Path_407" data-name="Path 407" class="cls-1" d="M2976.549,807.192c-26.158-32.6-71.8-83.322-79.512-91.462s-28.323-24.183-58.622-10.633c-30.252,13.55-31.052,14.961-31.052,14.961-6.116,8.563-12.232,17.078-18.349,25.641-.094,2.682-.141,5.316-.235,8q-20.466,29.358-40.979,58.669c26.77-10.539,76.312-29.734,80.358-31.664s31.052-11.527,60.928-4.517C2917.691,782.585,2973.961,804.839,2976.549,807.192Z" transform="translate(-1455.715 -371.274)"/>
    <path id="Path_408" data-name="Path 408" class="cls-1" d="M2317.494,877.776q118.068-46.013,229.031-101.342,32.463-16.867,64.879-33.734-32.323,12.844-64.644,25.735c-86.663,32.6-171.443,64.55-256.46,92.262,9.174,5.128,18.4,10.209,27.57,15.338C2317.729,876.6,2317.635,877.211,2317.494,877.776Z" transform="translate(-1213.461 -393.962)"/>
    <path id="Path_409" data-name="Path 409" class="cls-1" d="M2639.824,742.9c-69.49,31.8-139.31,67.279-208.424,95.461,63.609-22.16,126.842-46.013,190.075-69.82Z" transform="translate(-1288.175 -394.068)"/>
    <path id="Path_410" data-name="Path 410" class="cls-1" d="M2503.832,595.3q-6.775,34.721-13.6,69.443c-69.632,32.134-142.368,68.408-208.424,95.461l-66.385,22.442q-33.24-52.365-66.526-104.682C2267.226,654.11,2385.506,626.964,2503.832,595.3Z" transform="translate(-1138.587 -315.911)"/>
    <path id="Path_411" data-name="Path 411" class="cls-1" d="M2479.225,484.525q1.976-31.475,4-63c6.916-11.809,13.88-23.618,20.8-35.427-75.889,14.914-229.313,69.02-229.313,68.267,0-.706-29.922,7.81-68.267,5.834-36.086-1.835-74.289-8.422-97.061-13.456l-2.635,4.328c-1.552,15.9-3.67,42.955-4.14,51.283-1.882,33.592,11.9,49.165,21.689,64.785C2242.667,544.276,2360.946,514.73,2479.225,484.525Z" transform="translate(-1113.98 -205.136)"/>
    <path id="Path_412" data-name="Path 412" class="cls-1" d="M2111.846,450.405l5.975-2.305,1.082,32.934-11.1,22.912,1.788-20,2.635-4.328Z" transform="translate(-1116.823 -237.966)"/>
    <path id="Path_413" data-name="Path 413" class="cls-1" d="M2518.242,348.663q-19.266-16.655-38.486-33.263c-43.9,6.022-87.933,12.844-131.076,22.913l-146.461,25.641,1.835,27.758-29.405-8.328-4.093-3.293-.894-10.209-40.461,7.951c.329,10.962.706,21.925,1.035,32.887,27.806,5.881,56.552,9.269,85.675,11.621,24.23,1.317,42.3,1.458,75.512-6.116C2321.533,407.238,2466.912,356.332,2518.242,348.663Z" transform="translate(-1128.155 -167.699)"/>
    <path id="Path_414" data-name="Path 414" class="cls-1" d="M2284.3,380.263v-5.552L2470.846,346.2Q2377.62,365.043,2284.3,380.263Z" transform="translate(-1210.284 -184.009)"/>
    <path id="Path_415" data-name="Path 415" class="cls-1" d="M3043.386,601.858l-79.794-124.49,4.752-21.736,14.256-20.983-31.758-66.809,4-6.21-8.562-2.352,2.352-3.293,50.012-18.443-53.117-20.09s-7.669-4.752-26.677-4.752-44.648,1.27-44.648,1.27l38.485,33.263-20.8,35.427-4,63-13.6,69.443,31.052-14.961s33.687-17.078,58.623,10.633C2988.857,538.484,3043.386,601.858,3043.386,601.858Z" transform="translate(-1522.646 -166.27)"/>
    <path id="Path_416" data-name="Path 416" class="cls-1" d="M2377.286,296.245c-43.19,5.881-88.78,9.316-132.017,8.422.282,5.975.564,12,.847,17.972q.918,16.655,1.835,33.31c-9.786-2.776-19.619-5.552-29.405-8.328-1.364-1.082-2.729-2.211-4.093-3.293-.282-3.387-.612-6.822-.894-10.21-.47-7.575-.988-15.15-1.459-22.724,6.069-5.6,12.186-11.2,18.255-16.8-.847-2.117-2.682-3.152-1.976-6.587s12.609-20.325,17.69-24.371c5.081-4,10.3-5.74,17.878-8.845s18.631-6.634,26.206-6.916c16.326-.612,78.1,14.162,95.79,20.8Z" transform="translate(-1172.052 -131.936)"/>
    <path id="Path_417" data-name="Path 417" class="cls-1" d="M2290.947,323.751l130.088,1.035,2.588-8.328L2300.074,314.2C2292.876,314.294,2290.523,318.434,2290.947,323.751Z" transform="translate(-1213.777 -167.064)"/>
    <path id="Path_418" data-name="Path 418" class="cls-1" d="M2246.392,333.169c6.963-.988,13.879-2.305,20.842-3.293a13.935,13.935,0,0,1,.141-1.976c-6.916.565-13.832,1.129-20.8,1.694A6.322,6.322,0,0,0,2246.392,333.169Z" transform="translate(-1190.113 -174.318)"/>
    <path id="Path_419" data-name="Path 419" class="cls-1" d="M2557.448,293.3l-14.726,10.209-5.222-.094,18.02-13.315,2.635.941Z" transform="translate(-1344.357 -154.303)"/>
    <path id="Path_420" data-name="Path 420" class="cls-1" d="M2459.058,226.116s-11.856-61.774-20.089-72.031c-27.617-7.669-90.38-13.079-117.573-12.8-34.863.423-53.776,2.352-86.9,14.256-50.483,18.161-108.587,132.3-105.435,130.088,13.5-2.635,26.959-5.316,40.462-7.951-.47-7.575-.988-15.15-1.459-22.724,6.07-5.6,12.186-11.2,18.255-16.8-3.152-3.952-2.4-7.669.377-11.292a84.325,84.325,0,0,1,15.337-19.666,115.149,115.149,0,0,1,44.084-15.808c34.063,3.293,65.3,11.386,95.791,20.8-2.87,9.174-5.74,18.4-8.563,27.57q-65.986,4.234-132.018,8.422c.282,5.975.565,12,.847,17.972q93.015-14.185,186.029-28.417C2411.728,233.879,2435.393,229.974,2459.058,226.116Z" transform="translate(-1128.017 -75.498)"/>
    <path id="Path_421" data-name="Path 421" class="cls-1" d="M3178.333,741.621c3.246-64.033,7.293-130.324,36.7-193.321-18.255,3.152-36.368,7.387-54.764,9.5-13.785,1.553-27.758.988-41.637,1.458a58.5,58.5,0,0,0-33.027,10.3l-21.5,32.6q39.873,62.457,79.888,124.819C3155,731.788,3167.371,736.775,3178.333,741.621Z" transform="translate(-1623.202 -291.024)"/>
    <path id="Path_422" data-name="Path 422" class="cls-1" d="M3287.558,649.786c-.47,2.258-.988,4.517-1.458,6.728l10.445-1.835c4.752-4.281,9.5-8.563,14.255-12.8,0,0-2.259-123.361,43.755-197.508,27.758-46.766,57.352-59.375,89.956-55.235,32.558,4.14,56.834,37.5,63.186,80.641,4.046,21.736,2.823,43.237-2.493,64.5l-1.553,37.874q7.481-19.549,14.962-39.05-.635-42.414-1.223-84.828c-1.929-8-3.905-16-5.834-24.042-14.679-30.158-33.546-52.882-70.431-56.693-36.886-3.858-64.786,20.372-85.44,48.742q-11.5,18.066-23.054,36.086c-31.24,68.737-33.921,133.758-36.7,193.321C3293.111,647.057,3290.334,648.422,3287.558,649.786Z" transform="translate(-1740.755 -195.096)"/>
    <path id="Path_423" data-name="Path 423" class="cls-1" d="M3287.721,241.338c-13.409.235-75.371-8.7-121.149,47.566C3120.793,345.22,3064.1,438.8,3064.1,438.8c1.6-7.245,3.152-14.491,4.752-21.736q7.128-10.515,14.255-20.983c23.524-36.98,64.127-94.52,79.088-111.74,14.961-17.173,34.91-32.887,55.517-37.968C3241.519,240.491,3265,238.044,3287.721,241.338Z" transform="translate(-1623.202 -127.7)"/>
    <path id="Path_424" data-name="Path 424" class="cls-1" d="M3020.542,239.677c-31.1,37.639-58.245,76.924-83.793,116.915q-15.878-33.381-31.757-66.808c1.318-2.07,2.682-4.14,4-6.21-2.87-.8-5.74-1.6-8.562-2.352.376-.565.8-1.082,1.176-1.647q25.618-10.021,51.236-20.09-22.725-8.61-45.5-17.22s-13.973-7.951-34.3-7.622c-20.278.329-44.649,1.27-44.649,1.27-6.869.941-13.691,1.929-20.56,2.87a506.574,506.574,0,0,0-15.714-62.951q100.989,34.157,204.377,65.538l21.5-4.846-11.2-6.022c-76.218-18.49-148.484-40.414-219.1-63.75,1.741-.518,3.529-1.035,5.27-1.553,62.951,22.066,179.442,55.517,238.394,64.033C3027.787,232.714,3024.165,236.2,3020.542,239.677Z" transform="translate(-1476.843 -88.166)"/>
    <path id="Path_425" data-name="Path 425" class="cls-1" d="M3018.1,238.325l-21.5,4.846q-103.529-31.475-204.377-65.538a30.852,30.852,0,0,0-4.423-9.033c71.513,23.9,144.391,45.449,219.1,63.75Z" transform="translate(-1476.896 -89.966)"/>
    <path id="Path_426" data-name="Path 426" class="cls-1" d="M2841.9,247.4l-27.382-53.87L2797.2,187.7c6.775,20.325,11.715,41.4,15.714,62.951l20.56-2.87Z" transform="translate(-1481.873 -100.08)"/>
    <path id="Path_427" data-name="Path 427" class="cls-1" d="M2854.1,99.3a312.96,312.96,0,0,0-55,31.052c78.994,21.783,159.4,42.2,238.393,64.033,12.327-11.2,38.909-33.4,109.952-27.429l-32.6-5.175C3029.072,136.892,2942.221,115.861,2854.1,99.3Z" transform="translate(-1482.879 -53.271)"/>
    <path id="Path_428" data-name="Path 428" class="cls-1" d="M2916,99.3q79.888,23.077,159.776,46.107c3.34.941,15.855,5.411,16.42,9.127.329,2.07-1.411,3.811-20.09,5.928s-41.073,6.587-59.422,10.492c9.739-1.458,42.767-6.21,57.352-7.763s26.394-2.258,31.428-2.494,34.3-3.482,3.623-13.55C3074.364,137.127,2916,99.3,2916,99.3Z" transform="translate(-1544.78 -53.271)"/>
    <path id="Path_429" data-name="Path 429" class="cls-1" d="M3371.552,240.292,3343.7,231.4l30.863,1.27,20.137,3.905A150.075,150.075,0,0,0,3371.552,240.292Z" transform="translate(-1771.255 -123.22)"/>
    <path id="Path_430" data-name="Path 430" class="cls-1" d="M2066.146,286.537c-1.976.753-3.952,1.506-5.881,2.258q15.667-29.217,31.381-58.434c-9.739.235-19.525.518-29.264.753a40.424,40.424,0,0,0-19.148,5.834c-11.2,6.493-22.865,13.691-32.934,20.748a775.658,775.658,0,0,1,52.6-58.763c18.537-18.772,38.391-35.992,58.481-52.929,16.561-6.21,31.24-3.67,44.649,12.75C2128.015,178.75,2089.576,239.3,2066.146,286.537Z" transform="translate(-1065.195 -76.356)"/>
    <path id="Path_431" data-name="Path 431" class="cls-1" d="M2221.5,204.87c9.88-17.126,35.427-75.7,133.1-78.147,84.828-2.117,139.5,17.784,138.6,18.019s-3.528,1.035-5.269,1.553a531.771,531.771,0,0,0-128.818-12.562c-34.91.047-64.268,6.963-85.486,18.772C2255.516,162.62,2236.509,183.133,2221.5,204.87Z" transform="translate(-1177.03 -67.708)"/>
    <path id="Path_432" data-name="Path 432" class="cls-1" d="M2781.354,92.9c-21.36,3.058-41.261,17.126-50.953,25.124l32.275,8.892a292.339,292.339,0,0,1,38.2-23.383L2779.331,97.7Z" transform="translate(-1446.501 -49.882)"/>
    <path id="Path_433" data-name="Path 433" class="cls-1" d="M2779.483,97.375a159.719,159.719,0,0,0-37.78,22.818l-11.1-2.87c14.915-12.28,31.664-21.125,50.954-25.124Z" transform="translate(-1446.607 -49.511)"/>
    <path id="Path_434" data-name="Path 434" class="cls-1" d="M2519.207,118.117c-70.808-16.8-139.451-18.349-203.907,10.115,54.293-25.641,115.6-18.114,184.523-9.174C2506.269,119.905,2512.762,118.447,2519.207,118.117Z" transform="translate(-1226.698 -56.844)"/>
    <path id="Path_435" data-name="Path 435" class="cls-1" d="M2151.809,44.484C1966.11-1.623,1927.3,34.98,1873.1,71.16,1758.157,44.954,1644.63,24.3,1541.5,45.754l23.665-7.057c50.859-18.678,111.5-30.911,173.326-35.051,64.456-4.234,127.83-2.117,190.357,4.752a153.227,153.227,0,0,1,50.389-3.67A1718.721,1718.721,0,0,1,2151.809,44.484Z" transform="translate(-816.957 -1.465)"/>
    <path id="Path_436" data-name="Path 436" class="cls-1" d="M2339.8,16.2l-22.3,8.422,11.527-7.669Z" transform="translate(-1227.863 -9.268)"/>
    <path id="Path_437" data-name="Path 437" class="cls-1" d="M2316,79.41c3.67-4.046,7.387-8.139,11.056-12.185,36.039-18.678,79.982-25.547,140.956-17.126C2385.914,46.476,2347.664,59.838,2316,79.41Z" transform="translate(-1227.069 -25.335)"/>
    <path id="Path_438" data-name="Path 438" class="cls-1" d="M1035.612,316.523c2.964-.047,28.041,1.647,67.514-28.323-30.158,19.713-60.927,24.277-68.126,24.183C1035.188,313.747,1035.423,315.112,1035.612,316.523Z" transform="translate(-548.757 -153.296)"/>
    <path id="Path_439" data-name="Path 439" class="cls-1" d="M1060.756,416.624l-13.409,3.529q-39.1-4.446-78.147-8.939c3.105-2.352,6.21-4.7,9.315-7.01,8.045-4.234,16.138-8.469,24.183-12.7-4.752,3.529-9.551,7.1-14.3,10.633C995.124,413,1029.563,414.224,1060.756,416.624Z" transform="translate(-513.915 -207.996)"/>
    <path id="Path_440" data-name="Path 440" class="cls-1" d="M969.2,362.239c2.493-3.152,4.987-6.352,7.481-9.5-.471-1.27-.988-2.541-1.458-3.858-1.788.047-3.529.141-5.316.188,2.117-10.492,12.75-19.384,30.864-26.817,20.607.235,40.508-10.4,60.316-23.148q-30.487,22.654-60.975,45.354c-7.2,3.576-14.4,7.2-21.548,10.774C975.411,357.581,972.305,359.933,969.2,362.239Z" transform="translate(-513.915 -159.068)"/>
    <path id="Path_441" data-name="Path 441" class="cls-1" d="M3477.7,462.3c-55.329,5.881-91.65,59.281-97.484,140.58s38.533,147.167,85.816,144.956,72.689-53.023,87.18-125.478S3533.03,456.422,3477.7,462.3Z" transform="translate(-1790.316 -245.347)"/>
    <path id="Path_442" data-name="Path 442" class="cls-1" d="M3509.638,510.227c-42.39,2.447-79.888,47.9-85.11,110.516s24.418,128.159,64.785,128.536c40.414.376,68.079-49.307,79.088-112.022S3552.029,507.78,3509.638,510.227Z" transform="translate(-1813.738 -270.829)"/>
    <path id="Path_443" data-name="Path 443" class="cls-1" d="M3506.188,520.828c-40.649,2.4-76.594,46.907-81.629,108.211-4.987,61.3,23.383,125.525,62.151,125.854,38.768.376,65.256-48.319,75.842-109.716C3573.091,583.778,3546.791,518.428,3506.188,520.828Z" transform="translate(-1813.77 -276.443)"/>
    <path id="Path_444" data-name="Path 444" class="cls-1" d="M3568.611,643.95l-29.453-15.62-29.922,8-3.293,22.677,23.007,21.548,29.264,7.81-4,11.1-27.806-12-20.466-19.713-.659,4.47,16.75,17.455-.518,58.481-8.328,5.269,1.176-59.751-20.089-24.841-10.586,2.211,3.293,86.569-6.351-1.976-2.07-60.974-33.828,21.877-3.952-9.221,32.934-17.5-.706-28.841-5.5-23.195-33.4,25.03v-9.5l33.216-24.089-18.255-51.847,3.293-6.587,19.525,51.659,11.527-12.233,14.208-33.4-21.689-36.321,6.728-5.646,19.384,40.508-7.528,18.631,2.211,1.458,7.481-18.819L3528.62,527.6l4.988,4.846-39.427,77.065,9.645,9.833,28.511-10.021,22.066-55.705,6.3,13.456-22.913,48.46-30.111,9.315,1.27,4.752,29.782-9.88,31.146,12.091Z" transform="translate(-1819.123 -280.063)"/>
    <ellipse id="Ellipse_3" data-name="Ellipse 3" class="cls-1" cx="15.197" cy="21.924" rx="15.197" ry="21.924" transform="translate(1653.463 336.176)"/>
    <path id="Path_445" data-name="Path 445" class="cls-1" d="M3550.422,736.5c-5.082,0-9.222,5.975-9.222,13.315s4.14,13.315,9.222,13.315,9.221-5.975,9.221-13.315S3555.55,736.5,3550.422,736.5Z" transform="translate(-1875.834 -390.679)"/>
    <path id="Path_446" data-name="Path 446" class="cls-1" d="M3554.129,746.7c-3.294,0-5.928,3.811-5.928,8.563,0,4.7,2.635,8.563,5.928,8.563s5.928-3.811,5.928-8.563S3557.422,746.7,3554.129,746.7Z" transform="translate(-1879.541 -396.08)"/>
    <path id="Path_447" data-name="Path 447" class="cls-1" d="M3503.427,537.536c-39.285,2.164-74.007,43.1-78.853,99.413s22.583,115.315,60.033,115.645,63.092-44.366,73.254-100.777C3568.072,595.405,3542.666,535.372,3503.427,537.536Z" transform="translate(-1813.785 -285.294)"/>
    <path id="Path_448" data-name="Path 448" class="cls-1" d="M3380.243,820.268S3302,824.455,3275.7,813.117a245.734,245.734,0,0,1-45.4-25.688l33.781-2.682,2.54-6.916,14.585-13.127s-4.234-116.915,37.639-165.7C3277.207,703.259,3312.681,809.306,3380.243,820.268Z" transform="translate(-1711.207 -317.871)"/>
  </g>
</svg>
