<svg xmlns="http://www.w3.org/2000/svg" viewBox="0 0 1653.17 625.565">
  <defs>
    <style>
      .cls-1, .cls-2, .cls-3 {
        fill: none;
        stroke: #333;
        stroke-width: 4px;
      }

      .cls-1 {
        stroke-linecap: round;
        stroke-linejoin: round;
        stroke-miterlimit: 22.926;
      }

      .cls-2, .cls-3 {
        stroke-miterlimit: 10;
      }

      .cls-2 {
        fill-rule: evenodd;
      }
    </style>
  </defs>
  <g id="Group_281" data-name="Group 281" transform="translate(0.5 0.526)">
    <path id="Path_329" data-name="Path 329" class="cls-1" d="M1639.344,164.176q-9.475-16.075-18.95-32.106c-21.694-11.239-79.5-28.36-107.862-30.1C1432.986,79.794,1352.96,59.1,1271.1,44.16c-5.184,2.352-10.368,4.748-15.552,7.1-6.665-1.786-13.287-3.616-19.952-5.4.566-1.786,1.307-2.657,1.873-4.487-55.717-15.16-105.379-27.358-159.746-36.767-17.382-1.35-32.89-.218-46.656,3.4C957.8-1.19,870.324.553,821.446,6.7A575.043,575.043,0,0,0,694.329,36.057C652.29,46.817,616.96,66.028,581.718,85.414c-1.786-2.047-2.047-3.659-6.578-4.313-4.574-.653-9.192,1.263-17.382,6.142s-15.9,10.847-25.136,18.3c.349,1.786-2.178,5.62-3.006,9.323-10.586,6.883-20.126,13.069-30.712,19.908-6.97,4.095-13.679,6.491-21.172,9.018a95.569,95.569,0,0,1-18.384,4.182q-33.457,3.921-66.957,7.8c-17.774-4.618-46.09-6.186-88.259-5.1-52.755,1.307-132.127,37.639-158.57,70.659-8.713,8.408-15.247,16.946-24.09,25.18C81.395,283.931,38.747,320.96,1.5,360.3c4.356,7.231,8.669,14.419,13.025,21.651,4.923,2.047,9.8,4.051,14.724,6.1-1.786,1.307-5.358,3.093-7.144,4.4-1.481,4.923-1.176,9.279-2.657,14.2-1.525,1.568-3.049,3.137-4.574,4.748,3.7,12.851,7.449,25.7,11.152,38.553-8.538,18.95-14.071,39.73-18.079,61.38-.044,2.135-.131,4.269-.174,6.4h4.4c-1.568.915-3.137,1.786-4.748,2.7-.261,1.96.436,1.917.174,3.877l14.2,10.8c16.641,9.323,36.245,17.077,56.458,23.655,32.324,12.5,50.838,15.334,87.213,22.435,12.895,1.133,29.536,7.711,42.431,7.536,47.527,1.133,106.338,2.7,153.822,3.834,50.62.784,101.2,1.917,151.818,2.7,34.153-3.7,69.919-5.228,101.807-11.806-1.35-38.989-11.588-72.881-3.4-114.44s28.8-94.314,52.058-126.812,50.4-47.7,82.509-61.206,86.6-3.267,110.433,9.5c-3.7,5.01-3.093,11.631.131,19.255,40.644,92.4,39.163,146.285,26.7,224.829q252.035-48.355,504.113-96.71,25.681-2.026,51.4-4.051l2.352-6.4c4.487-4.051,9.018-8.1,13.5-12.154-5.881-65.388,24.265-208.929,90.481-230.754,31.322-10.324,51.71-1.22,68.351,16.99,12.59,13.766,19.952,32.934,23.611,53.888,2.832,18.384,3.267,37.856-2.527,60.291l-1.438,35.068c4.618-12.067,11.327-23.524,13.853-36.157,3.616-18.166,3.746-36.462,2.527-54.933-1.046-15.857-5.576-31.409-9.279-46.83Q1640.151,188.4,1639.344,164.176Z" transform="translate(0 -0.074)"/>
    <path id="Path_330" data-name="Path 330" class="cls-1" d="M419.4,1025.5c14.245,28.1,43.215,83.859,43.912,84.9.523.828,7.754,16.206-2.091,20.3-1.176.479-3.529,3.006-5.533,4.7l-12.72,10.978.61,5.4c79.851-24.178,196.034-54.28,268.218-55.02q25.354,28.752,50.795,57.5,31.1-3.4,62.208-6.752v-8.8c-8.8.915-17.6,1.786-26.356,2.7q-8.822-28.425-17.6-56.806c10.368-5.881,20.736-11.718,31.1-17.6-2.265-13.287-4.487-26.617-6.752-39.9q-63.58,17.251-127.117,34.5l-11.5,4.052c2.047-5.62,4.051-11.283,6.1-16.9q-20.257,7.449-40.557,14.9c-18.689,2.265-42.91,4.138-52.1,4.574-9.235.436-16.728-8.059-22.043-13.548l-44.522-46.09-59.682,4.356c-10.237.566-20.518,1.176-30.756,1.743C421.752,1018.271,420.576,1021.887,419.4,1025.5Z" transform="translate(-235.85 -568.395)"/>
    <path id="Path_331" data-name="Path 331" class="cls-1" d="M1536.117,669.8a129.705,129.705,0,0,0-39.512,6.186c-60.945,19.6-105.074,176.823-104.029,185.361,9.758,78.806,63.123,138.879,135.438,138.879,80.156,0,139.054-67.959,145.109-165.322C1679.222,737.5,1616.23,669.8,1536.117,669.8Z" transform="translate(-785.069 -377.187)"/>
    <path id="Path_332" data-name="Path 332" class="cls-1" d="M1601.518,754.573c-64.561,2.7-113.918,81.724-113.918,136.44s30.059,122.413,94.619,125.81,124.765-56.545,126.725-134.131C1710.818,805.106,1666.078,751.872,1601.518,754.573Z" transform="translate(-838.708 -424.975)"/>
    <path id="Path_333" data-name="Path 333" class="cls-1" d="M919.423,670.534c-5.4,8.8-14.376,20.3-17.077,24.7s-10.8,9.1-24.178,9.976-152.6,15.16-157.568,14.376c-25.267,2.919-25.4-2.788-31.8-5.053,49.4-15.247,114.353-32.759,153.517-40.557,16.772-3.354,60.074-14.071,75.756-14.2C924.607,659.469,924.695,662.562,919.423,670.534Z" transform="translate(-387.89 -371.517)"/>
    <path id="Path_334" data-name="Path 334" class="cls-1" d="M898.513,674.9c-2.788,4.574-6.186,10.107-14.027,13.679-4.531,2.091-156.958,37.029-158.831,36.724-27.706,3.441-34.458-4.051-36.854-4.879,17.6-7.972,165.758-45.219,180.961-46.569,6.36-.566,21.172-3.616,27.009-3.659C899.3,670.061,900.517,671.891,898.513,674.9Z" transform="translate(-387.89 -377.404)"/>
    <path id="Path_335" data-name="Path 335" class="cls-1" d="M1013.26,775.2l-28.969,2.527-31.932,20.039L951.4,819.46l12.851-3.006,5.75-9.845,19.255-5.4,14.55-14.2,3.4-.349Z" transform="translate(-536.093 -436.671)"/>
    <path id="Path_336" data-name="Path 336" class="cls-1" d="M588.949,763.878c3.006-.958,5.968-1.917,8.974-2.875,10.847-238.683,126.42-342.8,259.07-285.774,10.8-3.224,21.564-6.491,32.367-9.715q16.924-27.706,33.8-55.456c-.131-9.018-.218-18.035-.348-27.053q14.507-27.053,29.057-54.105c-9.018.218-22.566.566-27.1.7-10.281.392-17.9,4.748-37.856,17.9-19.952,13.2-28.577,17.425-34.154,18.6s-83.075,8.8-92.136,10.716-129.905,5.489-161.706,2.788-55.107-1.742-66.085-6.8c-6.4,1.7-24.613,6.491-37.464,9.845-23.437-2.7-48.921-5.576-72.358-8.277l6.927-8.8c-.436-1.176-.915-2.352-1.35-3.572-1.655.044-3.267.131-4.923.174-.044-8.538,11.675-17.338,28.577-24.831-.131-1.263-.3-2.57-.436-3.834l-59.464,6.927C309.884,361.7,210.255,369.98,145.52,406.05,98.777,455.233,50.988,498.491,1.5,545.017c4.356,7.231,8.669,14.419,13.025,21.651,22.7,12.72,74.057,25.092,114.353,28.708q28.752,3.2,57.46,6.4c4.618,3.4,9.235,6.752,13.853,10.15l88.607-4.051q16.075-9.8,32.106-19.6l94.358-20.649c4.269-1,8.582-2.047,12.851-3.049l5.75-9.8c6.4-1.786,12.851-3.616,19.255-5.4l14.55-14.2c.566-.044,2.832-.261,3.4-.349,2.047-3.834,4.051-7.667,6.1-11.5-10.934.958-21.912,1.96-32.847,2.919q-98.409,8.691-196.775,17.425,45.611-13.722,91.265-27.488,66.848-16.4,133.652-32.847c19.255-3.441,47.353-10.5,57.721-10.281,10.324.174,1.83,8.1-5.533,21.085-4.313,7.624-25.833,40.644-44.914,76.715-13.592,25.746-23.916,52.973-35.025,73.883-2.614,6.8-5.271,13.635-7.885,20.431-2.047,5.62-4.051,11.283-6.1,16.9q69.331-19.277,138.618-38.553c2.265,13.287,4.487,26.617,6.752,39.9l-21.3,12.023q10.455,30.516,20.954,60.988c4.4-.436,8.8-.915,13.2-1.35C588.949,758.041,588.949,760.96,588.949,763.878Z" transform="translate(0 -184.794)"/>
    <path id="Path_337" data-name="Path 337" class="cls-1" d="M1576.592,479.435s-89.3-30.059-151.513-27.358-107.514,18.95-107.514,18.95-83.162,32.455-104.16,60.858c-20.954,28.4-54.105,76.41-54.105,76.41l128.468-9.453s50.054-76.758,124.765-88.259c47.135-7.275,69.353-3.093,130.21,24.308Z" transform="translate(-653.426 -254.214)"/>
    <path id="Path_338" data-name="Path 338" class="cls-1" d="M1478.422,329.2s-29.754,3.616-40.906,12.067-31.8,21.651-31.8,21.651a104.777,104.777,0,0,1-39.207,9.453c-22.653,1-94.663,9.453-94.663,9.453q-64.234,12.873-128.468,25.7s-55.456,18.6-71.661,29.405c-16.249,10.8-22.653,20.605-22.653,20.605Q996,463.483,942.9,469.386q37.181-13.2,74.406-26.356c-13.287-1.35-26.617-2.7-39.9-4.051q67.3-15.225,134.567-30.451,76.65-14.18,153.342-28.4,57.242-6.665,114.527-13.374c21.738-1.438,53.321-36.375,76.323-36.985Z" transform="translate(-531.296 -184.963)"/>
    <path id="Path_339" data-name="Path 339" class="cls-1" d="M3.4,827.479l45.131,15.465q39.6,6.73,79.241,13.417L417.337,827l-.958,21.738-94.358,20.649-32.106,19.6-88.607,4.051-13.853-10.15q-28.752-3.2-57.46-6.4c-44.3-3.964-82.6-13.417-114.353-28.708Z" transform="translate(-1.072 -465.906)"/>
    <path id="Path_340" data-name="Path 340" class="cls-2" d="M209.462,716.775,198.309,722l7.8-8.1L142.2,761.558l16.728-9.453-13.025,11.5Z" transform="translate(-79.407 -402.076)"/>
    <path id="Path_341" data-name="Path 341" class="cls-3" d="M209.462,716.775,198.309,722l7.8-8.1L142.2,761.558l16.728-9.453-13.025,11.5Z" transform="translate(-79.407 -402.076)"/>
    <path id="Path_342" data-name="Path 342" class="cls-2" d="M277.256,720.675,201.5,762.757,272.682,717.8l-17.077,13.679Z" transform="translate(-112.874 -404.277)"/>
    <path id="Path_343" data-name="Path 343" class="cls-3" d="M277.256,720.675,201.5,762.757,272.682,717.8l-17.077,13.679Z" transform="translate(-112.874 -404.277)"/>
    <path id="Path_344" data-name="Path 344" class="cls-1" d="M333.342,939.37,201,948.692l-38.771-24.7-60.335-13.025L48.7,893.846l7.1-3.746,54.367,15.2,45.349,6.8,57.5,6.4,13.853,10.15,88.564-4.052Z" transform="translate(-26.638 -501.517)"/>
    <path id="Path_345" data-name="Path 345" class="cls-1" d="M232.928,1059.187l-102.461-5.75c-11.152-4.269-22.3-8.582-33.457-12.851-7.449-1.786-14.9-3.616-22.3-5.4-3.964-7.231-7.885-14.419-11.849-21.651.566-2.614,1.394-6.491,1.7-7.8l4.7-12.285L42.426,912.9c-.741-2.265,1.786-9.453,2.657-14.2q26.6,8.56,53.147,17.12,30.189,6.534,60.335,13.025,19.342,12.35,38.728,24.7c4.139.044,8.277-.915,12.415-.871l-3.224,10.847c12.285,27.924,24.265,52.886,36.549,80.81C247.7,1053.436,240.944,1058.533,232.928,1059.187Z" transform="translate(-23.022 -506.371)"/>
    <path id="Path_346" data-name="Path 346" class="cls-1" d="M751.812,1173.8c-98.366,11.806-189.935,36.027-278.412,65.867.218,1.786.436,3.616.61,5.4,62.513-19.124,212.2-58.07,268.306-55.02q25.354,28.752,50.708,57.46c5.707-.61,11.414-1.22,17.12-1.873Q781,1209.7,751.812,1173.8Z" transform="translate(-266.325 -661.629)"/>
    <path id="Path_347" data-name="Path 347" class="cls-1" d="M1100.253,1104.552c30.451-15.813,57.939-34.023,83.859-53.452,2.265,13.287,4.487,26.617,6.752,39.9-10.368,5.881-20.736,11.718-31.1,17.6q8.822,28.425,17.6,56.806c8.8-.915,17.6-1.786,26.356-2.7v8.8q-23.328,2.548-46.656,5.053l-15.552,1.7q-25.354-28.752-50.708-57.46C1093.937,1115.356,1097.073,1109.954,1100.253,1104.552Z" transform="translate(-614.766 -592.381)"/>
    <path id="Path_348" data-name="Path 348" class="cls-1" d="M496.488,1147.767c-.523,4.4-3.006,6.186-4.966,7.014-6.055,5.228-12.067,10.412-18.122,15.639,89.174-32.193,193.595-55.282,278.412-65.867,28.621-17.9,55.238-35.547,83.859-53.452q-69.331,19.277-138.618,38.553c2.048-5.62,4.051-11.283,6.1-16.9q-20.257,7.449-40.557,14.9l-48.791,4.356c-7.536.7-10.629-.871-14.115-3.18l-20.039,4.7c6.752,4.618,9.235,4.7,20.257,4.269l22.784-.871c-5.968,4.4-69.788,28.969-79.111,33.151Q520.121,1138.9,496.488,1147.767Z" transform="translate(-266.325 -592.381)"/>
    <path id="Path_349" data-name="Path 349" class="cls-1" d="M16.2,1091.98c7.754-3.877,19.3-8.843,21.128-10.15,1.786-1.307,12.416-4.792,7.754-19.6-4.7-14.855-10.76-31.627-10.76-31.627A274.25,274.25,0,0,0,16.2,1091.98Z" transform="translate(-8.296 -580.811)"/>
    <path id="Path_350" data-name="Path 350" class="cls-1" d="M49.039,1033.965,20.2,1042.329l-4.4-.131.174-6.317,22.348-10.847s10.586-6.012,6.927-17.338c-3.616-11.326-11.2-33.2-11.2-33.2L22.9,935.948l4.574-4.748,26.791,80.548-4.7,12.285-1.7,7.8Z" transform="translate(-8.07 -524.713)"/>
    <path id="Path_351" data-name="Path 351" class="cls-1" d="M743.105,1210.879q-89.784,20.714-179.567,41.385-44.369,6.8-88.738,13.635C570.6,1236.8,692.7,1208.962,743.105,1210.879Z" transform="translate(-267.115 -682.502)"/>
    <path id="Path_352" data-name="Path 352" class="cls-1" d="M240.577,1038.015q-19.6-5.685-39.163-11.37c-3.616,1.7-7.231,3.4-10.8,5.053-11.588-3.137-23.219-6.317-34.807-9.453-2.614-3.7-5.184-7.449-7.8-11.152-9.932-2.352-19.821-4.748-29.754-7.1-3.137-2.832-6.317-5.62-9.453-8.451-9.235-1.481-18.471-2.919-27.706-4.4Q68.938,952.588,56.74,914.034c-3.049-.131-6.1-.218-9.148-.349,2.614-2.265,5.184-4.487,7.8-6.752L45.457,898.7c-.871,4.748-1.786,9.453-2.657,14.2q13.4,40.252,26.791,80.548l-4.7,12.285c5.053,8.321,10.8,17.033,15.857,25.354l-5.533,4.139c7.406,1.873,15.116,3.529,22.13,5.358,11.152,4.269,22.3,8.582,33.457,12.851q50.577,2.81,101.11,5.663C244.933,1058.925,248.026,1052,240.577,1038.015Z" transform="translate(-23.308 -506.371)"/>
    <path id="Path_353" data-name="Path 353" class="cls-1" d="M120.854,1131l-12.154,4.226,12.677,25.528,10.8-5.4Z" transform="translate(-60.5 -637.474)"/>
    <path id="Path_354" data-name="Path 354" class="cls-1" d="M113.413,1124.384,97.6,1131.4l3.137-7.8Z" transform="translate(-54.236 -633.297)"/>
    <path id="Path_355" data-name="Path 355" class="cls-1" d="M261.212,1191.8l-59.856,21.694L167.9,1200.64l58.462-18.34Z" transform="translate(-93.911 -666.426)"/>
    <line id="Line_1" data-name="Line 1" class="cls-1" x1="28.185" y2="9.627" transform="translate(66.758 497.621)"/>
    <path id="Path_356" data-name="Path 356" class="cls-1" d="M630.974,1085.88l-23.829.915c-5.881.218-13.374,2.4-23.655-8.277-10.324-10.629-37.682-46.917-37.682-46.917L488,1036l63.907,82.988Z" transform="translate(-274.565 -581.375)"/>
    <path id="Path_357" data-name="Path 357" class="cls-1" d="M552.025,1008.6l-6.317,10.063-57.808,4.356,7.406-10.194Z" transform="translate(-274.509 -568.395)"/>
    <path id="Path_358" data-name="Path 358" class="cls-1" d="M513.192,1124.732q-23.589,8.886-47.135,17.73c-.3-1.96,2.44-3.572-6.012-20.17s-27.4-51.84-40.644-78.109c9.976-.828,19.908-1.656,29.884-2.483Q481.173,1083.259,513.192,1124.732Z" transform="translate(-235.85 -587.075)"/>
    <path id="Path_359" data-name="Path 359" class="cls-1" d="M422.58,1020.173l-3.18,10.8,29.841-2.483,7.406-10.194Z" transform="translate(-235.85 -573.869)"/>
    <path id="Path_360" data-name="Path 360" class="cls-1" d="M828.37,982.456q-24.308-2.744-48.616-5.445c-6.1-2.832-12.154-5.62-18.253-8.451q-12.35-26.53-24.7-53.1l32.8-18.95q41.1-10.324,82.16-20.605c4.487,1.786,9.018,3.616,13.5,5.4,0,0,10.5,3.049,6.4,12.154-4.052,9.148-10.281,26.966-15.2,38.9-4.923,11.893-4.836,20.867,1.046,26.443-1.96,5.01-3.877,10.02-5.837,15.029C843.965,976.749,836.168,979.58,828.37,982.456Z" transform="translate(-414.98 -493.503)"/>
    <path id="Path_361" data-name="Path 361" class="cls-1" d="M1037.3,774.974l15.247-.174-21.869,35.591s-5.707,10.542-15.2,6.1L994,806.427l19.255-5.4,14.55-14.2,3.4-.349Z" transform="translate(-560.136 -436.446)"/>
    <path id="Path_362" data-name="Path 362" class="cls-1" d="M800.359,869.9,693.15,893.6,661,913.2l33.064-1.133,32.8-18.906,82.16-20.649Z" transform="translate(-372.201 -490.117)"/>
    <path id="Path_363" data-name="Path 363" class="cls-1" d="M1048.423,734.595,1023.2,775.631c-4.008,6.055-8.8,8.974-15.073,5.837q-10.717-5.031-21.477-10.063l-5.75,9.8q11.3,4.117,22.609,8.19s9.235,2.962,5.968,12.023-13.287,32.934-17.251,44.522c-3.964,11.544-.958,17.12,3.093,20.823,13.069-25.005,21.782-50.011,34.851-75.016,8.059-15.421,16.859-31.1,26.182-46.525,6.578-10.847,13.809-21.477,19.473-32.324l-10.194,14.245A28.93,28.93,0,0,1,1048.423,734.595Z" transform="translate(-552.742 -401.511)"/>
    <path id="Path_364" data-name="Path 364" class="cls-1" d="M770.974,1033.7l-17.164,6.273-45.088,4.182L686.9,1038.1l-51.8-53.147,29.187-2.352-17.9-14.768,33.065-1.133,24.657,53.1,18.253,8.451Z" transform="translate(-357.584 -544.748)"/>
    <path id="Path_365" data-name="Path 365" class="cls-1" d="M607.078,723.679c-96.536,9.8-170.942,17.338-267.478,27.1,43-19.168,111.478-39.9,178.3-59.987,70.747-21.259,142.5-40.47,201.262-46.177,18.558-1.786,20.475-.566,15.378,9.5-15.6,30.973-38.771,61.076-54.367,92.049-18.253,36.245-34.633,73.4-47.135,109.648l-11.5,4.051c20.605-53.365,42.91-102.461,73.4-154.3,8.974-15.247,17.992-31.017,28.708-46.83,10.455-13.722-16.249-6.534-26.573-4.748-101.2,25.267-201.7,50.446-302.895,75.713q122.391-13,244.825-26.051Q623.065,713.7,607.078,723.679Z" transform="translate(-190.813 -362.584)"/>
    <path id="Path_366" data-name="Path 366" class="cls-1" d="M311.03,780.164c-7.362.741-14.768,1.481-22.13,2.222q86.909-34.11,173.9-68.307,56.262-9.018,112.48-18.079C484.281,718.958,396.632,747.8,311.03,780.164Z" transform="translate(-162.199 -391.973)"/>
    <path id="Path_367" data-name="Path 367" class="cls-1" d="M501.971,394.7l-95.316,31.975s-22,7.1-33.152,23-29.754,45.654-29.754,45.654L336.3,520.336l36.157,8.1,262.468-52.494L373.9,526.827,339.916,519.2l11.239-28.534,24-35.94c7.929-9.41,24.352-19.691,31.975-23.35C414.714,427.764,501.971,394.7,501.971,394.7Z" transform="translate(-188.951 -221.929)"/>
    <path id="Path_368" data-name="Path 368" class="cls-1" d="M631.927,406.743c-114.353,31.54-190.981,68.089-254.627,121.5,4.792,1.089,7.972,1.786,12.764,2.875,59.377-45.175,137.224-85.253,245.086-113.743,2.309-2.919,4.618-5.881,6.927-8.8-.436-1.176-.915-2.352-1.35-3.572-1.655.044-3.267.131-4.923.174C634.5,405.7,633.234,406.22,631.927,406.743Z" transform="translate(-212.09 -227.742)"/>
    <path id="Path_369" data-name="Path 369" class="cls-1" d="M716.6,440.749c-101.415,27.183-193.638,58.68-264.385,100.326l-38.64,7.536-6.97-1.568Q505.075,471.832,651.686,433.3Z" transform="translate(-228.626 -243.714)"/>
    <path id="Path_370" data-name="Path 370" class="cls-1" d="M760.37,349.6c-55.761,13.418-110.825,28.229-162.97,48.878-37.377,13.025-26.922,21.346,18.079,6.927,43.52-15.813,87.78-28.49,132.214-40.252C749.044,359.62,754.446,353.608,760.37,349.6Z" transform="translate(-323.456 -196.476)"/>
    <path id="Path_371" data-name="Path 371" class="cls-1" d="M970.7,368.265c.741-12.067,8.059-21.172,26.182-26.225l.741-2.309c.392-.044.784-.087,1.22-.131.131,1.263.3,2.57.436,3.834C985.512,349.532,970.874,358.463,970.7,368.265Z" transform="translate(-546.986 -190.832)"/>
    <path id="Path_372" data-name="Path 372" class="cls-1" d="M1548.615,108.111c-40.732,33.5-74.754,68.133-102.853,103.419-13.417,7.928-18.514,10.8-28.273,12.546l-101.72,11.239c-24.221,2.657-199.432,5.184-213.721-5.14l-23.655,6.186c-27.053-2-59.682-2.352-68.394-13.069l67.3-50.054c48.747-35.2,106.294-66.347,164.277-88.651C1327.488,64.9,1445.762,82.19,1548.615,108.111Z" transform="translate(-569.166 -42.113)"/>
    <path id="Path_373" data-name="Path 373" class="cls-1" d="M1265.845,188.971c-19.429,7.754-31.627,16.554-52.145,29.449,7.493-9.5,27.227-24.178,39.991-30.625,2.7-1.35,3.354-2.4,5.75-2.657C1261.837,184.833,1263.885,185.965,1265.845,188.971Z" transform="translate(-684.127 -103.632)"/>
    <path id="Path_374" data-name="Path 374" class="cls-1" d="M1915.3,458.01q43.781-2.483,87.606-5.01c.131,9.018.218,18.035.348,27.053A642.523,642.523,0,0,0,1915.3,458.01Z" transform="translate(-1080.088 -254.832)"/>
    <path id="Path_375" data-name="Path 375" class="cls-1" d="M289.005,506.3,230.5,556l45.349-51.4Z" transform="translate(-129.24 -283.953)"/>
    <path id="Path_376" data-name="Path 376" class="cls-1" d="M997.391,441.431q-80.57.653-161.184,1.35s-62.208,8.8-88.912,16.554c-26.7,7.8-115.617,35.112-128.991,40.47l-89.13,35.809L511.4,539.1a799.832,799.832,0,0,1,95.8-46c54.193-21.52,111-38.553,168.589-54.323,2.483.3,4.966.566,7.406.871,12.5-3.267,24.962-6.578,37.464-9.845,53.67,9.976,136.222,9.018,213.721,5.14Q1015.883,438.142,997.391,441.431Z" transform="translate(-287.771 -241.739)"/>
    <path id="Path_377" data-name="Path 377" class="cls-1" d="M1020.417,456.5l-161.184,1.35c-27.445,4.226-54.759,7.928-80.287,14.289-24.178,6.012-49.226,14.507-72.489,21.651Q622.946,519.536,552.2,550.684l205.575-39.817,132.65-30.276Z" transform="translate(-310.798 -256.807)"/>
    <path id="Path_378" data-name="Path 378" class="cls-1" d="M617.349,368.49c-111.522,30.538-197.036,73.055-258.5,123.066-4.748-1.046-9.5-2.135-14.245-3.18q5.62-14.245,11.239-28.534c8.016-11.98,20-29.971,24-35.94,2.265-3.441,6.97-7.275,13.548-12.023,4.923-3.572,10.8-8.016,18.384-11.326,17.73-7.667,81.681-33.892,94.924-36.724s52.886-11.414,79.328-17.077q29.144-3.4,58.288-6.752l-.741,2.309C629.2,346.23,618.351,353.679,617.349,368.49Z" transform="translate(-193.635 -191.058)"/>
    <path id="Path_379" data-name="Path 379" class="cls-1" d="M1063.472,785.511l-50.359,92.31c-5.75,12.2-6.709,22.827-2.44,28.708,17.338-42.518,39.163-83.162,61.511-122.369C1069.222,782.766,1066,782.9,1063.472,785.511Z" transform="translate(-568.052 -441.232)"/>
    <path id="Path_380" data-name="Path 380" class="cls-1" d="M1604.277,764.177C1542.635,766.791,1495.5,843.331,1495.5,896.3s28.665,118.536,90.307,121.8,119.1-54.759,120.931-129.862C1708.655,813.055,1665.919,761.563,1604.277,764.177Z" transform="translate(-843.166 -430.396)"/>
    <path id="Path_381" data-name="Path 381" class="cls-1" d="M1607.111,782.282c-58.81,2.44-103.811,74.232-103.811,123.894s27.358,111.173,86.212,114.223c58.81,3.049,113.656-51.361,115.443-121.8S1665.965,779.8,1607.111,782.282Z" transform="translate(-847.568 -440.616)"/>
    <path id="Path_382" data-name="Path 382" class="cls-1" d="M1694.953,948.668l-48.311-7.232-29.623-27.4,5.75-23.655,36.2-8.277,47.745,18.689.436-10.934-47.353-15.2-35.678,11.326-.828-8.625,34.676-8.8,31.1-52.755-8.016-11.718-26.661,58.9-36.68,10.978-15.726-12.328,12.023-35.33,22.13-28.752,12.067-19.734-11.2-4.313-26.573,45.349-5.75,8.8-8.277,27.576,4.748-27.4L1568.141,779.9l-11.2,7.014,36.593,43.955-7.624,33.108-16.206,14.9-20.649-6.752-24.918-51.4-8.93,14.245,30.668,43.912,9.8,3.4-.7,4.356-9.628-2.832L1496,909.156l1.481,14.942,46.525-29.841,19.952,3.049,6.229,21.3-8.451,30.1-50.49,20.605,6.622,11.806,48.965-25.136,5.227-19.124,3.7,1.176-5.881,18.776,1.263,64.473,12.111,1.917-6.273-61.99,7.275-33.152,19.6-2.352,24.483,29.405-3.79,62.426,12.851-5.663-.436-60.465-16.205-18.427,2.352-2.4,16.728,17.077,50.446,10.586Z" transform="translate(-843.448 -435.712)"/>
    <path id="Path_383" data-name="Path 383" class="cls-1" d="M1691.251,995.179c-12.285.523-21.651,15.465-21.651,25.833s5.707,23.176,17.992,23.829,23.7-10.717,24.091-25.4C1712.031,1004.763,1703.536,994.7,1691.251,995.179Z" transform="translate(-941.423 -560.811)"/>
    <path id="Path_384" data-name="Path 384" class="cls-1" d="M1711.108,1021.586c-7.275.3-12.808,9.148-12.808,15.291s3.4,13.722,10.63,14.114,14.027-6.317,14.245-15.029S1718.382,1021.281,1711.108,1021.586Z" transform="translate(-957.62 -575.717)"/>
    <path id="Path_385" data-name="Path 385" class="cls-1" d="M1717.1,1034.692c-4.443.174-7.8,5.576-7.8,9.323s2.047,8.364,6.491,8.582,8.538-3.877,8.669-9.148S1721.541,1034.518,1717.1,1034.692Z" transform="translate(-963.828 -583.117)"/>
    <path id="Path_386" data-name="Path 386" class="cls-1" d="M1725.563,713.4c-38.161-15.77-73.4-11.893-106.163,9.279,1.917,4.269,3.834,8.582,5.75,12.851,29.536-18.427,61.6-24.265,97.886-8.451C1723.865,722.5,1724.692,717.971,1725.563,713.4Z" transform="translate(-913.092 -396.345)"/>
    <path id="Path_387" data-name="Path 387" class="cls-1" d="M1882.917,741.638l-4.879,4.487L1872.2,741.9l5.315-4.4Z" transform="translate(-1055.764 -415.395)"/>
    <path id="Path_388" data-name="Path 388" class="cls-1" d="M1884.364,760l-3.964,3.4,4.792,3.485,3.964-3.224Z" transform="translate(-1060.392 -428.093)"/>
    <path id="Path_389" data-name="Path 389" class="cls-1" d="M1907.875,766.5l-2.875-2.44,4.356-3.964,2.919,2.44Z" transform="translate(-1074.275 -428.149)"/>
    <path id="Path_390" data-name="Path 390" class="cls-1" d="M1907.075,783.533,1904.2,781.4l4.008-3.4,2.745,2.4Z" transform="translate(-1073.824 -438.252)"/>
    <path id="Path_391" data-name="Path 391" class="cls-1" d="M1926.516,781.327l-3.616-3.485,4.008-3.441,3.529,3.485Z" transform="translate(-1084.377 -436.22)"/>
    <path id="Path_392" data-name="Path 392" class="cls-1" d="M2113.976,901.212q-53.91,11.435-107.862,22.827c-4.095-.218-8.234-.479-12.328-.7,12.023-64.909,10.237-134.218-28.185-215.2l26.007-.653c8.19-.218,14.681,2.919,25.484,14.289,10.8,11.414,89.3,125.985,88.128,128.381s-3.267,6.534-4.923,9.8c5.184,7.057,10.368,14.071,15.552,21.128v3.7c1.176,1.656,2.352,3.267,3.529,4.923C2117.592,893.545,2115.806,897.378,2113.976,901.212Z" transform="translate(-1108.476 -398.45)"/>
    <path id="Path_393" data-name="Path 393" class="cls-1" d="M2163.762,1091.392,2058.6,1121.581l4.4-27.14,89.783-36.942Z" transform="translate(-1160.962 -595.992)"/>
    <path id="Path_394" data-name="Path 394" class="cls-1" d="M2006.6,740.052c25.572,57.329,33.021,115.66,27.053,174.819q44.892-18.493,89.784-36.942c-27.009-38.858-76.715-110.563-80.984-116.575s-6.883-9.8-12.154-15.2C2024.984,740.749,2014.441,737.874,2006.6,740.052Z" transform="translate(-1131.615 -416.422)"/>
    <path id="Path_395" data-name="Path 395" class="cls-1" d="M2117.38,892.125l-31.757-2.4L2080.7,883.5Z" transform="translate(-1173.435 -497.792)"/>
    <path id="Path_396" data-name="Path 396" class="cls-1" d="M2064.964,789.9l-15.9,6.4s-4.748,2.178-1.351,10.978,8.277,20.954,8.277,20.954l5.4,2.352,38.118,8.974Z" transform="translate(-1154.126 -444.968)"/>
    <path id="Path_397" data-name="Path 397" class="cls-1" d="M2112.382,777.707l10.324-3.485,6.4-31.366-25.528-14.2-39.469-61.729-31.627-50.359a66.426,66.426,0,0,1-10.324-30.755c-1.176-17.73,1.525-40.906,1.525-40.906l2.048-20.605-31.366,51.448L1962,585.463c-3.616,5.358-3.311,11.806.479,19.255l25.659-.654s13.984-2.091,31.409,21.52c17.382,23.611,22.3,30.581,22.3,30.581l23.045,33.544,36.811,57.068-4.923,9.8Z" transform="translate(-1105.009 -295.071)"/>
    <path id="Path_398" data-name="Path 398" class="cls-1" d="M2204.8,859.9l40.557,73.752-1.394,3.877-3.79-1.351-4.879,9.8,15.552,21.128,10.281-3.441,6.448-31.365-25.528-14.2Z" transform="translate(-1243.473 -484.473)"/>
    <path id="Path_399" data-name="Path 399" class="cls-1" d="M2584.77,962.677l-15.16,2.222L2495.9,950l-83.859,13.2-23.916,14.855-217.25,42.213-16.9,6.317-5.4,11.5-107.862,22.827-12.328-.7-1.481,9.627,504.113-96.71,51.4-4.051Z" transform="translate(-1143.072 -535.323)"/>
    <path id="Path_400" data-name="Path 400" class="cls-1" d="M2357.4,1027.3q100.108-31.17,200.173-62.383c6.361-1.568,15.944-4.356,19.429-.523,3.485,3.877,1.568,13.94-4.574,16.9-7.231,2.832-14.506,5.62-21.738,8.451Q2454.044,1008.5,2357.4,1027.3Z" transform="translate(-1329.595 -542.357)"/>
    <path id="Path_401" data-name="Path 401" class="cls-1" d="M2310.5,985.351v3.7l269.133-85.166c6.709-2.309,33.675-12.851,64.735-2.875,31.1,9.976,85.384,26.878,85.384,26.878l7.1-2.7L2652.035,899.1c-10.5-3.224-34.284-12.2-65.867-2.483-88.477,27.227-177.171,56.719-265.343,85.253Z" transform="translate(-1303.126 -502.715)"/>
    <path id="Path_402" data-name="Path 402" class="cls-1" d="M2990.206,919.9l-34.327,11.849-44.478,6.927,1.177-17.425,20.474-6.752s21.651-5.228,34.807-1.35C2981.1,917.023,2990.206,919.9,2990.206,919.9Z" transform="translate(-1642.255 -513.716)"/>
    <path id="Path_403" data-name="Path 403" class="cls-1" d="M2735.446,937.276l1.351-6.229-7.1,2.7-80.331-25.267s-25.876-12.938-64.865-.436c-38.946,12.459-274.1,86.909-274.1,86.909l3.529,4.923,16.9-6.36,217.249-42.169L2572,936.491l83.859-13.2,73.709,14.9Z" transform="translate(-1303.07 -508.571)"/>
    <path id="Path_404" data-name="Path 404" class="cls-1" d="M2388.5,954.186l228.838-90s26.7-12.5,58.5-5.053c33.936,7.928,77.456,27.183,110.825,41.429.261.131,2.178.7,1.917.828l-7.711,3.79-96.405-31.67s-24.831-10.15-54.759-2.047C2599.738,879.563,2388.5,954.186,2388.5,954.186Z" transform="translate(-1347.147 -482.703)"/>
    <path id="Path_405" data-name="Path 405" class="cls-1" d="M2780.874,920.152l-99.934-32.89s-26.661-8.626-52.625-.436S2388.5,969.2,2388.5,969.2l231.974-74.667c10.237-3.311,28.8-11.2,58.157-5.62C2699.715,894.886,2780.874,920.152,2780.874,920.152Z" transform="translate(-1347.147 -497.677)"/>
    <path id="Path_406" data-name="Path 406" class="cls-1" d="M2290.352,941.43l190.5-72.707c13.025-18.645,24.918-35.678,37.944-54.323-78.632,38.945-158.178,74.188-244,105.9Z" transform="translate(-1282.978 -458.795)"/>
    <path id="Path_407" data-name="Path 407" class="cls-1" d="M2959.6,799.24c-24.221-30.189-66.477-77.15-73.622-84.687s-26.225-22.391-54.28-9.845c-28.011,12.546-28.752,13.853-28.752,13.853-5.663,7.928-11.326,15.813-16.99,23.742-.087,2.483-.131,4.923-.218,7.406q-18.95,27.183-37.944,54.323c24.787-9.758,70.66-27.532,74.406-29.318s28.752-10.673,56.415-4.182C2905.106,776.457,2957.208,797.062,2959.6,799.24Z" transform="translate(-1549.925 -394.147)"/>
    <path id="Path_408" data-name="Path 408" class="cls-1" d="M2315.48,867.77q109.322-42.6,212.066-93.835,30.058-15.617,60.073-31.235-29.928,11.893-59.856,23.829c-80.243,30.189-158.744,59.769-237.463,85.427,8.495,4.748,17.033,9.453,25.528,14.2C2315.7,866.681,2315.61,867.247,2315.48,867.77Z" transform="translate(-1291.726 -418.329)"/>
    <path id="Path_409" data-name="Path 409" class="cls-1" d="M2624.385,742.9c-64.343,29.449-128.99,62.3-192.985,88.39,58.9-20.518,117.446-42.6,176-64.648Z" transform="translate(-1371.359 -418.442)"/>
    <path id="Path_410" data-name="Path 410" class="cls-1" d="M2477.541,595.3q-6.273,32.149-12.59,64.3c-64.474,29.754-131.822,63.341-192.985,88.39l-61.468,20.78q-30.777-48.486-61.6-96.928C2258.461,649.754,2367.979,624.618,2477.541,595.3Z" transform="translate(-1211.925 -335.141)"/>
    <path id="Path_411" data-name="Path 411" class="cls-1" d="M2451.314,477.234q1.83-29.144,3.7-58.331c6.4-10.934,12.851-21.869,19.255-32.8-70.268,13.81-212.327,63.907-212.327,63.21,0-.653-27.706,7.231-63.21,5.4-33.413-1.7-68.786-7.8-89.871-12.459l-2.439,4.008c-1.437,14.724-3.4,39.773-3.833,47.484-1.742,31.1,11.021,45.523,20.083,59.986C2232.279,532.559,2341.8,505.2,2451.314,477.234Z" transform="translate(-1185.698 -217.076)"/>
    <path id="Path_412" data-name="Path 412" class="cls-1" d="M2111.547,450.235l5.532-2.135,1,30.494L2107.8,499.809l1.656-18.514,2.439-4.008Z" transform="translate(-1188.729 -252.066)"/>
    <path id="Path_413" data-name="Path 413" class="cls-1" d="M2489.424,346.2q-17.839-15.421-35.635-30.8c-40.645,5.576-81.419,11.893-121.367,21.215L2196.81,360.357l1.7,25.7-27.227-7.711-3.79-3.049-.828-9.453-37.464,7.362c.3,10.15.653,20.3.958,30.451,25.746,5.445,52.363,8.582,79.329,10.76,22.435,1.22,39.163,1.35,69.919-5.663C2307.286,400.435,2441.9,353.3,2489.424,346.2Z" transform="translate(-1200.806 -177.175)"/>
    <path id="Path_414" data-name="Path 414" class="cls-1" d="M2284.3,377.74V372.6l172.728-26.4Q2370.707,363.647,2284.3,377.74Z" transform="translate(-1288.34 -194.557)"/>
    <path id="Path_415" data-name="Path 415" class="cls-1" d="M3030.854,580.439,2956.97,465.171l4.4-20.126,13.2-19.429-29.405-61.86,3.7-5.75-7.928-2.178,2.178-3.049,46.307-17.077-49.182-18.6s-7.1-4.4-24.7-4.4-41.341,1.176-41.341,1.176l35.635,30.8-19.255,32.8-3.7,58.331-12.589,64.3,28.751-13.853s31.191-15.813,54.28,9.845C2980.364,521.76,3030.854,580.439,3030.854,580.439Z" transform="translate(-1621.261 -175.651)"/>
    <path id="Path_416" data-name="Path 416" class="cls-1" d="M2365.05,292.661c-39.991,5.445-82.2,8.625-122.238,7.8.261,5.533.523,11.109.784,16.641q.85,15.421,1.7,30.843c-9.061-2.57-18.166-5.14-27.227-7.711-1.263-1-2.527-2.047-3.79-3.049-.261-3.137-.566-6.317-.828-9.453-.436-7.014-.915-14.027-1.351-21.041,5.62-5.184,11.283-10.368,16.9-15.552-.784-1.96-2.483-2.919-1.83-6.1s11.675-18.819,16.38-22.566c4.7-3.7,9.54-5.315,16.554-8.19s17.251-6.142,24.265-6.4c15.116-.566,72.315,13.113,88.694,19.255Z" transform="translate(-1247.593 -139.058)"/>
    <path id="Path_417" data-name="Path 417" class="cls-1" d="M2290.943,323.043,2411.4,324l2.4-7.711-114.4-2.091C2292.729,314.287,2290.551,318.121,2290.943,323.043Z" transform="translate(-1292.064 -176.497)"/>
    <path id="Path_418" data-name="Path 418" class="cls-1" d="M2246.378,332.779c6.448-.915,12.851-2.135,19.3-3.049a12.882,12.882,0,0,1,.131-1.83c-6.4.523-12.808,1.046-19.255,1.568A5.853,5.853,0,0,0,2246.378,332.779Z" transform="translate(-1266.842 -184.229)"/>
    <path id="Path_419" data-name="Path 419" class="cls-1" d="M2555.971,293.062l-13.635,9.453-4.835-.087,16.685-12.328,2.439.871Z" transform="translate(-1431.238 -162.896)"/>
    <path id="Path_420" data-name="Path 420" class="cls-1" d="M2434.6,219.832s-10.978-57.2-18.6-66.7c-25.571-7.1-83.685-12.111-108.864-11.849-32.281.392-49.793,2.178-80.461,13.2-46.743,16.815-100.543,122.5-97.625,120.452,12.5-2.44,24.962-4.923,37.464-7.362-.436-7.014-.915-14.027-1.351-21.041,5.62-5.184,11.283-10.368,16.9-15.552-2.918-3.659-2.221-7.1.349-10.455a78.077,78.077,0,0,1,14.2-18.209,106.62,106.62,0,0,1,40.819-14.637c31.54,3.049,60.466,10.542,88.695,19.255-2.658,8.495-5.315,17.033-7.929,25.528q-61.1,3.921-122.238,7.8c.261,5.533.523,11.109.784,16.641Q2282.875,243.77,2369,230.592C2390.78,227.02,2412.692,223.4,2434.6,219.832Z" transform="translate(-1200.659 -78.906)"/>
    <path id="Path_421" data-name="Path 421" class="cls-1" d="M3169.871,727.3c3.006-59.289,6.753-120.67,33.979-179-16.9,2.919-33.674,6.839-50.708,8.8-12.764,1.438-25.7.915-38.553,1.35a54.164,54.164,0,0,0-30.581,9.54L3064.1,598.18q36.92,57.83,73.97,115.573C3148.264,718.2,3159.721,722.814,3169.871,727.3Z" transform="translate(-1728.435 -308.616)"/>
    <path id="Path_422" data-name="Path 422" class="cls-1" d="M3287.45,628.849c-.436,2.091-.915,4.182-1.35,6.229l9.671-1.7c4.4-3.964,8.8-7.928,13.2-11.849,0,0-2.091-114.223,40.514-182.878,25.7-43.3,53.1-54.977,83.292-51.143,30.146,3.834,52.624,34.72,58.505,74.667,3.747,20.126,2.614,40.035-2.309,59.725l-1.438,35.068q6.927-18.1,13.854-36.157-.588-39.272-1.133-78.544c-1.786-7.406-3.616-14.811-5.4-22.261-13.592-27.924-31.061-48.965-65.214-52.494-34.154-3.572-59.987,18.863-79.111,45.131q-10.651,16.728-21.346,33.413c-28.926,63.646-31.409,123.85-33.979,179C3292.591,626.322,3290.021,627.586,3287.45,628.849Z" transform="translate(-1853.724 -206.374)"/>
    <path id="Path_423" data-name="Path 423" class="cls-1" d="M3271.156,241.228c-12.416.218-69.788-8.059-112.175,44.042-42.387,52.145-94.881,138.792-94.881,138.792,1.481-6.709,2.918-13.417,4.4-20.126q6.6-9.736,13.2-19.429c21.782-34.241,59.377-87.518,73.23-103.462,13.853-15.9,32.324-30.451,51.4-35.155C3228.377,240.444,3250.115,238.179,3271.156,241.228Z" transform="translate(-1728.435 -134.543)"/>
    <path id="Path_424" data-name="Path 424" class="cls-1" d="M3003.294,234.161c-28.795,34.851-53.931,71.226-77.586,108.254q-14.7-30.908-29.4-61.86c1.22-1.917,2.483-3.834,3.7-5.75-2.657-.741-5.314-1.481-7.928-2.178.349-.523.74-1,1.089-1.525q23.721-9.279,47.441-18.6-21.041-7.972-42.126-15.944s-12.938-7.362-31.758-7.057c-18.776.3-41.342,1.176-41.342,1.176-6.36.871-12.677,1.786-19.037,2.657a469.024,469.024,0,0,0-14.55-58.288q93.509,31.627,189.238,60.684l19.908-4.487-10.368-5.576c-70.573-17.12-137.485-37.421-202.874-59.028,1.612-.479,3.268-.958,4.879-1.438,58.288,20.431,166.15,51.4,220.735,59.289C3010,227.713,3006.649,230.937,3003.294,234.161Z" transform="translate(-1572.443 -92.407)"/>
    <path id="Path_425" data-name="Path 425" class="cls-1" d="M3001.042,233.161l-19.908,4.487q-95.86-29.144-189.238-60.684a28.566,28.566,0,0,0-4.095-8.364c66.216,22.13,133.7,42.082,202.874,59.028Z" transform="translate(-1572.5 -94.325)"/>
    <path id="Path_426" data-name="Path 426" class="cls-1" d="M2838.585,242.982l-25.354-49.88-16.031-5.4a435.151,435.151,0,0,1,14.55,58.288l19.037-2.657Z" transform="translate(-1577.805 -105.105)"/>
    <path id="Path_427" data-name="Path 427" class="cls-1" d="M2850.025,99.3a289.79,289.79,0,0,0-50.925,28.752c73.143,20.17,147.592,39.076,220.735,59.289,11.414-10.368,36.027-30.93,101.807-25.4l-30.189-4.792C3012.037,134.107,2931.619,114.634,2850.025,99.3Z" transform="translate(-1578.877 -55.215)"/>
    <path id="Path_428" data-name="Path 428" class="cls-1" d="M2916,99.3q73.97,21.368,147.94,42.692c3.093.871,14.681,5.01,15.2,8.451.3,1.917-1.307,3.529-18.6,5.489s-38.031,6.1-55.02,9.715c9.017-1.35,39.6-5.75,53.1-7.188s24.439-2.091,29.1-2.309,31.758-3.224,3.354-12.546C3062.634,134.325,2916,99.3,2916,99.3Z" transform="translate(-1644.852 -55.215)"/>
    <path id="Path_429" data-name="Path 429" class="cls-1" d="M3369.489,239.633,3343.7,231.4l28.577,1.176,18.645,3.616A138.96,138.96,0,0,0,3369.489,239.633Z" transform="translate(-1886.232 -129.768)"/>
    <path id="Path_430" data-name="Path 430" class="cls-1" d="M2062.009,275.9c-1.829.7-3.659,1.394-5.445,2.091q14.506-27.053,29.057-54.105c-9.018.218-18.079.479-27.1.7a37.43,37.43,0,0,0-17.73,5.4c-10.368,6.012-21.172,12.677-30.494,19.211a718.205,718.205,0,0,1,48.7-54.41c17.164-17.382,35.547-33.326,54.149-49.009,15.334-5.75,28.926-3.4,41.341,11.806C2119.295,176.094,2083.7,232.16,2062.009,275.9Z" transform="translate(-1133.703 -79.82)"/>
    <path id="Path_431" data-name="Path 431" class="cls-1" d="M2221.5,199.069c9.148-15.857,32.8-70.093,123.24-72.358,78.544-1.96,129.165,16.467,128.337,16.685s-3.267.958-4.879,1.438A492.378,492.378,0,0,0,2348.922,133.2c-32.324.044-59.507,6.447-79.154,17.382C2253,159.95,2235.4,178.943,2221.5,199.069Z" transform="translate(-1252.898 -70.602)"/>
    <path id="Path_432" data-name="Path 432" class="cls-1" d="M2777.579,92.9c-19.778,2.832-38.2,15.857-47.179,23.263l29.884,8.233a270.685,270.685,0,0,1,35.373-21.651l-19.952-5.4Z" transform="translate(-1540.105 -51.603)"/>
    <path id="Path_433" data-name="Path 433" class="cls-1" d="M2775.862,96.992a147.884,147.884,0,0,0-34.981,21.128l-10.281-2.657c13.81-11.37,29.318-19.56,47.179-23.263Z" transform="translate(-1540.217 -51.208)"/>
    <path id="Path_434" data-name="Path 434" class="cls-1" d="M2504.1,117.223c-65.562-15.552-129.121-16.99-188.8,9.366,50.272-23.742,107.035-16.772,170.855-8.495C2492.123,118.879,2498.135,117.528,2504.1,117.223Z" transform="translate(-1305.835 -59.024)"/>
    <path id="Path_435" data-name="Path 435" class="cls-1" d="M2106.6,41.3C1934.657-1.395,1898.718,32.5,1848.533,66,1742.108,41.733,1636.99,22.609,1541.5,42.473l21.912-6.534C1610.5,18.644,1666.657,7.318,1723.9,3.484c59.681-3.921,118.361-1.96,176.256,4.4a141.877,141.877,0,0,1,46.656-3.4A1591.422,1591.422,0,0,1,2106.6,41.3Z" transform="translate(-869.127)"/>
    <path id="Path_436" data-name="Path 436" class="cls-1" d="M2338.149,16.2,2317.5,24l10.673-7.1Z" transform="translate(-1307.077 -8.316)"/>
    <path id="Path_437" data-name="Path 437" class="cls-1" d="M2316,76.975c3.4-3.746,6.84-7.536,10.237-11.283,33.369-17.295,74.057-23.655,130.515-15.857C2380.735,46.481,2345.318,58.853,2316,76.975Z" transform="translate(-1306.23 -25.441)"/>
    <path id="Path_438" data-name="Path 438" class="cls-1" d="M1035.566,314.425c2.745-.044,25.964,1.525,62.513-26.225-27.924,18.253-56.414,22.479-63.08,22.391C1035.174,311.855,1035.392,313.118,1035.566,314.425Z" transform="translate(-583.275 -161.824)"/>
    <path id="Path_439" data-name="Path 439" class="cls-1" d="M1053.974,414.763l-12.416,3.267q-36.2-4.117-72.358-8.277c2.875-2.178,5.75-4.356,8.625-6.491,7.449-3.921,14.942-7.841,22.391-11.762-4.4,3.267-8.843,6.578-13.243,9.845C993.2,411.408,1025.092,412.541,1053.974,414.763Z" transform="translate(-546.139 -220.123)"/>
    <path id="Path_440" data-name="Path 440" class="cls-1" d="M969.2,357.562c2.309-2.919,4.618-5.881,6.926-8.8-.436-1.176-.915-2.352-1.35-3.572-1.655.044-3.267.131-4.923.174,1.96-9.715,11.806-17.948,28.577-24.831,19.081.218,37.508-9.628,55.848-21.433q-28.229,20.976-56.458,41.995c-6.665,3.311-13.33,6.665-19.952,9.976C974.95,353.249,972.075,355.427,969.2,357.562Z" transform="translate(-546.139 -167.975)"/>
    <path id="Path_441" data-name="Path 441" class="cls-1" d="M3470.441,462.283c-51.23,5.445-84.861,54.89-90.263,130.167s35.678,136.266,79.459,134.218,67.305-49.1,80.723-116.183S3521.672,456.838,3470.441,462.283Z" transform="translate(-1906.548 -259.933)"/>
    <path id="Path_442" data-name="Path 442" class="cls-1" d="M3503.289,510.222c-39.25,2.265-73.97,44.347-78.805,102.33s22.609,118.666,59.986,119.015c37.421.349,63.036-45.654,73.23-103.724S3542.54,507.956,3503.289,510.222Z" transform="translate(-1931.512 -287.092)"/>
    <path id="Path_443" data-name="Path 443" class="cls-1" d="M3500.1,520.823c-37.638,2.222-70.921,43.432-75.582,100.2-4.618,56.763,21.651,116.227,57.547,116.531,35.9.349,60.422-44.739,70.224-101.589C3562.046,579.111,3537.695,518.6,3500.1,520.823Z" transform="translate(-1931.545 -293.076)"/>
    <path id="Path_444" data-name="Path 444" class="cls-1" d="M3558.647,635.332l-27.271-14.463-27.706,7.406-3.049,21,21.3,19.952,27.1,7.232-3.7,10.281-25.746-11.109-18.95-18.253-.61,4.138,15.509,16.162-.479,54.149-7.711,4.879,1.089-55.325-18.6-23-9.8,2.048,3.049,80.156-5.881-1.83-1.917-56.458-31.322,20.257-3.659-8.538,30.494-16.205-.654-26.7-5.1-21.477L3434.1,652.8V644l30.755-22.3-16.9-48.006,3.05-6.1,18.079,47.832,10.673-11.326,13.156-30.93-20.083-33.631,6.23-5.228,17.948,37.508-6.97,17.251,2.047,1.35,6.927-17.425,22.609-45.393,4.618,4.487-36.506,71.356,8.93,9.1,26.4-9.279,20.431-51.579,5.837,12.459-21.215,44.87-27.88,8.625,1.176,4.4,27.576-9.148,28.839,11.2Z" transform="translate(-1937.251 -296.934)"/>
    <ellipse id="Ellipse_3" data-name="Ellipse 3" class="cls-1" cx="14.071" cy="20.3" rx="14.071" ry="20.3" transform="translate(1532.484 312.739)"/>
    <path id="Path_445" data-name="Path 445" class="cls-1" d="M3549.739,736.5c-4.705,0-8.539,5.532-8.539,12.328s3.834,12.328,8.539,12.328,8.538-5.533,8.538-12.328S3554.487,736.5,3549.739,736.5Z" transform="translate(-1997.695 -414.83)"/>
    <path id="Path_446" data-name="Path 446" class="cls-1" d="M3553.689,746.7c-3.05,0-5.489,3.529-5.489,7.928,0,4.356,2.439,7.928,5.489,7.928s5.489-3.529,5.489-7.928S3556.739,746.7,3553.689,746.7Z" transform="translate(-2001.645 -420.587)"/>
    <path id="Path_447" data-name="Path 447" class="cls-1" d="M3497.545,537.532c-36.375,2-68.525,39.9-73.012,92.049s20.91,106.773,55.586,107.078,58.418-41.08,67.828-93.312C3557.4,591.115,3533.877,535.528,3497.545,537.532Z" transform="translate(-1931.562 -302.509)"/>
    <path id="Path_448" data-name="Path 448" class="cls-1" d="M3369.136,803.878s-72.446,3.877-96.8-6.622a227.526,227.526,0,0,1-42.038-23.786l31.278-2.483,2.352-6.4,13.5-12.154S3273.515,644.175,3312.286,599C3273.733,695.536,3306.579,793.727,3369.136,803.878Z" transform="translate(-1822.233 -337.23)"/>
  </g>
</svg>
