<svg xmlns="http://www.w3.org/2000/svg" viewBox="0 0 79.78 67.89"><defs><style>.cls-1{fill:#0078d4;}</style></defs><title>bomSmile</title><g id="Layer_2" data-name="Layer 2"><g id="bomSmile"><path class="cls-1" d="M71.11,39.41a5.4,5.4,0,0,0-.83,1c-7.64,10.14-17.38,16.85-30.35,17-13-.12-22.71-6.83-30.35-17a5.22,5.22,0,0,0-8.12-.57c-1.86,1.9-1.94,4.28-.28,6.83h0A45.33,45.33,0,0,0,11.52,57.91c8.61,6.62,18.06,10,28.29,10H40c10.22,0,19.68-3.36,28.28-10A45.92,45.92,0,0,0,78.6,46.63c1.66-2.55,1.54-4.93-.2-6.83A5.17,5.17,0,0,0,71.11,39.41Z"/><path class="cls-1" d="M8.37,9.94h0A9.94,9.94,0,1,0,18.31,0,9.94,9.94,0,0,0,8.37,10Z"/><path class="cls-1" d="M51.53,9.94h0A9.94,9.94,0,1,0,61.47,0,9.93,9.93,0,0,0,51.53,10Z"/></g></g></svg>