<svg xmlns="http://www.w3.org/2000/svg" viewBox="0 0 80.63 79.88"><defs><style>.cls-1{fill:#0078d3;}</style></defs><title>bomSync</title><g id="Layer_2" data-name="Layer 2"><g id="bomSync"><path class="cls-1" d="M78.92,10,72.37,16.5A40.4,40.4,0,0,0,39.91,0,39.48,39.48,0,0,0,0,39.94H12A27.61,27.61,0,0,1,39.91,12,28.32,28.32,0,0,1,63.74,25.12l-7.2,7.2A1,1,0,0,0,57.25,34H79.62a1,1,0,0,0,1-1V10.66A1,1,0,0,0,78.92,10Z"/><path class="cls-1" d="M40.71,67.88A28.34,28.34,0,0,1,16.88,54.76l7.2-7.2a1,1,0,0,0-.7-1.71H1a1,1,0,0,0-1,1V69.23a1,1,0,0,0,1.71.7l6.55-6.55a40.35,40.35,0,0,0,32.45,16.5A39.48,39.48,0,0,0,80.58,39.94h-12A27.61,27.61,0,0,1,40.71,67.88Z"/></g></g></svg>